<?xml version="1.0" encoding="utf-8"?>
<!-- Generator: Adobe Illustrator 16.0.0, SVG Export Plug-In . SVG Version: 6.00 Build 0)  -->
<!DOCTYPE svg PUBLIC "-//W3C//DTD SVG 1.1//EN" "http://www.w3.org/Graphics/SVG/1.1/DTD/svg11.dtd">
<svg version="1.1" id="Ebene_1" xmlns="http://www.w3.org/2000/svg" xmlns:xlink="http://www.w3.org/1999/xlink" x="0px" y="0px"
	 width="1000px" height="300px" viewBox="0 0 1000 300" enable-background="new 0 0 1000 300" xml:space="preserve">
<g>
	<g>
		<defs>
			<path id="SVGID_1_" d="M17.189,60.62c0,0-9.518,0-9.518,9.521v19.118c0,0,0,9.515,9.518,9.515h19.117c0,0,9.519,0,9.519-9.515
				V70.141c0,0,0-9.521-9.519-9.521H17.189z"/>
		</defs>
		<clipPath id="SVGID_2_">
			<use xlink:href="#SVGID_1_"  overflow="visible"/>
		</clipPath>
		
			<linearGradient id="SVGID_3_" gradientUnits="userSpaceOnUse" x1="200.522" y1="450.8857" x2="201.4046" y2="450.8857" gradientTransform="matrix(52.1242 -26.5586 -26.5586 -52.1242 1526.6094 28919.0625)">
			<stop  offset="0" style="stop-color:#D8D8D7"/>
			<stop  offset="1" style="stop-color:#636362"/>
		</linearGradient>
		<polygon clip-path="url(#SVGID_2_)" fill="url(#SVGID_3_)" points="-7.762,68.486 37.963,45.19 61.261,90.909 15.536,114.21 		"/>
	</g>
	<g>
		<path fill="none" stroke="#B8B8B7" stroke-width="0.25" d="M17.189,60.62c0,0-9.518,0-9.518,9.521v19.118c0,0,0,9.519,9.518,9.519
			h19.117c0,0,9.519,0,9.519-9.519V70.141c0,0,0-9.521-9.519-9.521H17.189z"/>
	</g>
	<g>
		<defs>
			<path id="SVGID_4_" d="M66.584,60.62c0,0-9.517,0-9.517,9.521v19.118c0,0,0,9.515,9.517,9.515h19.118c0,0,9.518,0,9.518-9.515
				V70.141c0,0,0-9.521-9.518-9.521H66.584z"/>
		</defs>
		<clipPath id="SVGID_5_">
			<use xlink:href="#SVGID_4_"  overflow="visible"/>
		</clipPath>
		
			<linearGradient id="SVGID_6_" gradientUnits="userSpaceOnUse" x1="200.4219" y1="450.9375" x2="201.3036" y2="450.9375" gradientTransform="matrix(52.1242 -26.5586 -26.5586 -52.1242 1582.5938 28919.0625)">
			<stop  offset="0" style="stop-color:#D8D8D7"/>
			<stop  offset="1" style="stop-color:#636362"/>
		</linearGradient>
		<polygon clip-path="url(#SVGID_5_)" fill="url(#SVGID_6_)" points="41.635,68.486 87.356,45.19 110.653,90.909 64.933,114.21 		
			"/>
	</g>
	<g>
		<path fill="none" stroke="#B8B8B7" stroke-width="0.25" d="M66.584,60.62c0,0-9.517,0-9.517,9.521v19.118c0,0,0,9.519,9.517,9.519
			h19.118c0,0,9.519,0,9.519-9.519V70.141c0,0,0-9.521-9.519-9.521H66.584z"/>
	</g>
	<g>
		<defs>
			<path id="SVGID_7_" d="M165.376,60.62c0,0-9.519,0-9.519,9.521v19.118c0,0,0,9.515,9.519,9.515h19.117c0,0,9.52,0,9.52-9.515
				V70.141c0,0,0-9.521-9.52-9.521H165.376z"/>
		</defs>
		<clipPath id="SVGID_8_">
			<use xlink:href="#SVGID_7_"  overflow="visible"/>
		</clipPath>
		
			<linearGradient id="SVGID_9_" gradientUnits="userSpaceOnUse" x1="200.2202" y1="451.0391" x2="201.1028" y2="451.0391" gradientTransform="matrix(52.1242 -26.5586 -26.5586 -52.1242 1694.5625 28919.0625)">
			<stop  offset="0" style="stop-color:#D8D8D7"/>
			<stop  offset="1" style="stop-color:#636362"/>
		</linearGradient>
		<polygon clip-path="url(#SVGID_8_)" fill="url(#SVGID_9_)" points="140.425,68.486 186.15,45.19 209.446,90.909 163.719,114.21 		
			"/>
	</g>
	<g>
		<path fill="none" stroke="#B8B8B7" stroke-width="0.25" d="M165.376,60.62c0,0-9.519,0-9.519,9.521v19.118
			c0,0,0,9.519,9.519,9.519h19.117c0,0,9.52,0,9.52-9.519V70.141c0,0,0-9.521-9.52-9.521H165.376z"/>
	</g>
	<g>
		<defs>
			<path id="SVGID_10_" d="M17.189,110.017c0,0-9.518,0-9.518,9.519v19.115c0,0,0,9.521,9.518,9.521h19.117c0,0,9.519,0,9.519-9.521
				v-19.115c0,0,0-9.519-9.519-9.519H17.189z"/>
		</defs>
		<clipPath id="SVGID_11_">
			<use xlink:href="#SVGID_10_"  overflow="visible"/>
		</clipPath>
		
			<linearGradient id="SVGID_12_" gradientUnits="userSpaceOnUse" x1="200.5732" y1="450.9863" x2="201.4549" y2="450.9863" gradientTransform="matrix(52.1242 -26.5586 -26.5586 -52.1242 1526.6094 28975.0625)">
			<stop  offset="0" style="stop-color:#D8D8D7"/>
			<stop  offset="1" style="stop-color:#636362"/>
		</linearGradient>
		<polygon clip-path="url(#SVGID_11_)" fill="url(#SVGID_12_)" points="-7.763,117.88 37.963,94.584 61.261,140.31 15.536,163.61 		
			"/>
	</g>
	<g>
		<path fill="none" stroke="#B8B8B7" stroke-width="0.25" d="M17.189,110.017c0,0-9.518,0-9.518,9.518v19.116
			c0,0,0,9.521,9.518,9.521h19.117c0,0,9.519,0,9.519-9.521v-19.116c0,0,0-9.518-9.519-9.518H17.189z"/>
	</g>
	<g>
		<defs>
			<path id="SVGID_13_" d="M66.584,110.017c0,0-9.517,0-9.517,9.519v19.115c0,0,0,9.521,9.517,9.521h19.118c0,0,9.518,0,9.518-9.521
				v-19.115c0,0,0-9.519-9.518-9.519H66.584z"/>
		</defs>
		<clipPath id="SVGID_14_">
			<use xlink:href="#SVGID_13_"  overflow="visible"/>
		</clipPath>
		
			<linearGradient id="SVGID_15_" gradientUnits="userSpaceOnUse" x1="200.4727" y1="451.0381" x2="201.3548" y2="451.0381" gradientTransform="matrix(52.1242 -26.5586 -26.5586 -52.1242 1582.5938 28975.0625)">
			<stop  offset="0" style="stop-color:#D8D8D7"/>
			<stop  offset="1" style="stop-color:#636362"/>
		</linearGradient>
		<polygon clip-path="url(#SVGID_14_)" fill="url(#SVGID_15_)" points="41.635,117.88 87.356,94.584 110.653,140.31 64.933,163.604 
					"/>
	</g>
	<g>
		<path fill="none" stroke="#B8B8B7" stroke-width="0.25" d="M66.584,110.017c0,0-9.517,0-9.517,9.518v19.116
			c0,0,0,9.521,9.517,9.521h19.118c0,0,9.519,0,9.519-9.521v-19.116c0,0,0-9.518-9.519-9.518H66.584z"/>
	</g>
	<g>
		<defs>
			<path id="SVGID_16_" d="M165.376,110.017c0,0-9.519,0-9.519,9.519v19.115c0,0,0,9.521,9.519,9.521h19.117c0,0,9.52,0,9.52-9.521
				v-19.115c0,0,0-9.519-9.52-9.519H165.376z"/>
		</defs>
		<clipPath id="SVGID_17_">
			<use xlink:href="#SVGID_16_"  overflow="visible"/>
		</clipPath>
		
			<linearGradient id="SVGID_18_" gradientUnits="userSpaceOnUse" x1="200.2715" y1="451.1406" x2="201.1537" y2="451.1406" gradientTransform="matrix(52.1242 -26.5586 -26.5586 -52.1242 1694.5625 28975.0625)">
			<stop  offset="0" style="stop-color:#D8D8D7"/>
			<stop  offset="1" style="stop-color:#636362"/>
		</linearGradient>
		<polygon clip-path="url(#SVGID_17_)" fill="url(#SVGID_18_)" points="140.425,117.88 186.15,94.584 209.446,140.31 
			163.719,163.61 		"/>
	</g>
	<g>
		<path fill="none" stroke="#B8B8B7" stroke-width="0.25" d="M165.376,110.017c0,0-9.519,0-9.519,9.518v19.116
			c0,0,0,9.521,9.519,9.521h19.117c0,0,9.52,0,9.52-9.521v-19.116c0,0,0-9.518-9.52-9.518H165.376z"/>
	</g>
	<g>
		<defs>
			<path id="SVGID_19_" d="M115.981,110.017c0,0-9.519,0-9.519,9.519v19.115c0,0,0,9.521,9.519,9.521h19.115c0,0,9.52,0,9.52-9.521
				v-19.115c0,0,0-9.519-9.52-9.519H115.981z"/>
		</defs>
		<clipPath id="SVGID_20_">
			<use xlink:href="#SVGID_19_"  overflow="visible"/>
		</clipPath>
		
			<linearGradient id="SVGID_21_" gradientUnits="userSpaceOnUse" x1="200.3716" y1="451.0879" x2="201.2542" y2="451.0879" gradientTransform="matrix(52.1242 -26.5586 -26.5586 -52.1242 1638.5781 28975.0625)">
			<stop  offset="0" style="stop-color:#D8D8D7"/>
			<stop  offset="1" style="stop-color:#636362"/>
		</linearGradient>
		<polygon clip-path="url(#SVGID_20_)" fill="url(#SVGID_21_)" points="91.032,117.88 136.75,94.584 160.051,140.31 114.326,163.61 
					"/>
	</g>
	<g>
		<path fill="none" stroke="#B8B8B7" stroke-width="0.25" d="M115.981,110.017c0,0-9.519,0-9.519,9.518v19.116
			c0,0,0,9.521,9.519,9.521h19.115c0,0,9.52,0,9.52-9.521v-19.116c0,0,0-9.518-9.52-9.518H115.981z"/>
	</g>
	<g>
		<defs>
			<path id="SVGID_22_" d="M17.189,162.418c0,0-9.518,0-9.518,9.517v19.12c0,0,0,9.514,9.518,9.514h19.117c0,0,9.519,0,9.519-9.514
				v-19.12c0,0,0-9.517-9.519-9.517H17.189z"/>
		</defs>
		<clipPath id="SVGID_23_">
			<use xlink:href="#SVGID_22_"  overflow="visible"/>
		</clipPath>
		
			<linearGradient id="SVGID_24_" gradientUnits="userSpaceOnUse" x1="200.6265" y1="451.0938" x2="201.5087" y2="451.0938" gradientTransform="matrix(52.1242 -26.5586 -26.5586 -52.1242 1526.6094 29034.4375)">
			<stop  offset="0" style="stop-color:#D8D8D7"/>
			<stop  offset="1" style="stop-color:#636362"/>
		</linearGradient>
		<polygon clip-path="url(#SVGID_23_)" fill="url(#SVGID_24_)" points="-7.763,170.284 37.963,146.984 61.261,192.705 
			15.536,216.006 		"/>
	</g>
	<g>
		<path fill="none" stroke="#B8B8B7" stroke-width="0.25" d="M17.189,162.418c0,0-9.518,0-9.518,9.517v19.12
			c0,0,0,9.514,9.518,9.514h19.117c0,0,9.519,0,9.519-9.514v-19.12c0,0,0-9.517-9.519-9.517H17.189z"/>
	</g>
	<g>
		<defs>
			<path id="SVGID_25_" d="M66.584,162.418c0,0-9.517,0-9.517,9.517v19.12c0,0,0,9.514,9.517,9.514h19.118c0,0,9.518,0,9.518-9.514
				v-19.12c0,0,0-9.517-9.518-9.517H66.584z"/>
		</defs>
		<clipPath id="SVGID_26_">
			<use xlink:href="#SVGID_25_"  overflow="visible"/>
		</clipPath>
		
			<linearGradient id="SVGID_27_" gradientUnits="userSpaceOnUse" x1="200.5259" y1="451.1445" x2="201.408" y2="451.1445" gradientTransform="matrix(52.1242 -26.5586 -26.5586 -52.1242 1582.5938 29034.4375)">
			<stop  offset="0" style="stop-color:#D8D8D7"/>
			<stop  offset="1" style="stop-color:#636362"/>
		</linearGradient>
		<polygon clip-path="url(#SVGID_26_)" fill="url(#SVGID_27_)" points="41.635,170.284 87.356,146.984 110.653,192.705 
			64.933,216.006 		"/>
	</g>
	<g>
		<path fill="none" stroke="#B8B8B7" stroke-width="0.25" d="M66.584,162.418c0,0-9.517,0-9.517,9.517v19.12
			c0,0,0,9.514,9.517,9.514h19.118c0,0,9.519,0,9.519-9.514v-19.12c0,0,0-9.517-9.519-9.517H66.584z"/>
	</g>
	<g>
		<defs>
			<path id="SVGID_28_" d="M165.376,162.418c0,0-9.519,0-9.519,9.517v19.12c0,0,0,9.514,9.519,9.514h19.117c0,0,9.52,0,9.52-9.514
				v-19.12c0,0,0-9.517-9.52-9.517H165.376z"/>
		</defs>
		<clipPath id="SVGID_29_">
			<use xlink:href="#SVGID_28_"  overflow="visible"/>
		</clipPath>
		
			<linearGradient id="SVGID_30_" gradientUnits="userSpaceOnUse" x1="200.3257" y1="451.2471" x2="201.2079" y2="451.2471" gradientTransform="matrix(52.1242 -26.5586 -26.5586 -52.1242 1694.5625 29034.4375)">
			<stop  offset="0" style="stop-color:#D8D8D7"/>
			<stop  offset="1" style="stop-color:#636362"/>
		</linearGradient>
		<polygon clip-path="url(#SVGID_29_)" fill="url(#SVGID_30_)" points="140.425,170.284 186.15,146.984 209.446,192.705 
			163.719,216.006 		"/>
	</g>
	<g>
		<path fill="none" stroke="#B8B8B7" stroke-width="0.25" d="M165.376,162.418c0,0-9.519,0-9.519,9.517v19.12
			c0,0,0,9.514,9.519,9.514h19.117c0,0,9.52,0,9.52-9.514v-19.12c0,0,0-9.517-9.52-9.517H165.376z"/>
	</g>
	<g>
		<defs>
			<path id="SVGID_31_" d="M115.981,162.418c0,0-9.519,0-9.519,9.517v19.12c0,0,0,9.514,9.519,9.514h19.115c0,0,9.52,0,9.52-9.514
				v-19.12c0,0,0-9.517-9.52-9.517H115.981z"/>
		</defs>
		<clipPath id="SVGID_32_">
			<use xlink:href="#SVGID_31_"  overflow="visible"/>
		</clipPath>
		
			<linearGradient id="SVGID_33_" gradientUnits="userSpaceOnUse" x1="200.4263" y1="451.1953" x2="201.3084" y2="451.1953" gradientTransform="matrix(52.1242 -26.5586 -26.5586 -52.1242 1638.5781 29034.4375)">
			<stop  offset="0" style="stop-color:#D8D8D7"/>
			<stop  offset="1" style="stop-color:#636362"/>
		</linearGradient>
		<polygon clip-path="url(#SVGID_32_)" fill="url(#SVGID_33_)" points="91.032,170.284 136.75,146.984 160.051,192.705 
			114.326,216.006 		"/>
	</g>
	<g>
		<path fill="none" stroke="#B8B8B7" stroke-width="0.25" d="M115.981,162.418c0,0-9.519,0-9.519,9.517v19.12
			c0,0,0,9.514,9.519,9.514h19.115c0,0,9.52,0,9.52-9.514v-19.12c0,0,0-9.517-9.52-9.517H115.981z"/>
	</g>
	<g>
		<defs>
			<path id="SVGID_34_" d="M17.189,214.92c0,0-9.518,0-9.518,9.514v19.122c0,0,0,9.517,9.518,9.517h19.117c0,0,9.519,0,9.519-9.517
				v-19.122c0,0,0-9.514-9.519-9.514H17.189z"/>
		</defs>
		<clipPath id="SVGID_35_">
			<use xlink:href="#SVGID_34_"  overflow="visible"/>
		</clipPath>
		
			<linearGradient id="SVGID_36_" gradientUnits="userSpaceOnUse" x1="200.6807" y1="451.1992" x2="201.5629" y2="451.1992" gradientTransform="matrix(52.1242 -26.5586 -26.5586 -52.1242 1526.6094 29093.9375)">
			<stop  offset="0" style="stop-color:#D8D8D7"/>
			<stop  offset="1" style="stop-color:#636362"/>
		</linearGradient>
		<polygon clip-path="url(#SVGID_35_)" fill="url(#SVGID_36_)" points="-7.763,222.789 37.963,199.487 61.261,245.21 
			15.536,268.504 		"/>
	</g>
	<g>
		<path fill="none" stroke="#B8B8B7" stroke-width="0.25" d="M17.189,214.92c0,0-9.518,0-9.518,9.514v19.122
			c0,0,0,9.517,9.518,9.517h19.117c0,0,9.519,0,9.519-9.517v-19.122c0,0,0-9.514-9.519-9.514H17.189z"/>
	</g>
	<g>
		<defs>
			<path id="SVGID_37_" d="M66.584,214.92c0,0-9.517,0-9.517,9.514v19.122c0,0,0,9.517,9.517,9.517h19.118c0,0,9.518,0,9.518-9.517
				v-19.122c0,0,0-9.514-9.518-9.514H66.584z"/>
		</defs>
		<clipPath id="SVGID_38_">
			<use xlink:href="#SVGID_37_"  overflow="visible"/>
		</clipPath>
		
			<linearGradient id="SVGID_39_" gradientUnits="userSpaceOnUse" x1="200.5801" y1="451.251" x2="201.4627" y2="451.251" gradientTransform="matrix(52.1242 -26.5586 -26.5586 -52.1242 1582.5938 29093.9375)">
			<stop  offset="0" style="stop-color:#D8D8D7"/>
			<stop  offset="1" style="stop-color:#636362"/>
		</linearGradient>
		<polygon clip-path="url(#SVGID_38_)" fill="url(#SVGID_39_)" points="41.635,222.789 87.356,199.487 110.653,245.21 
			64.933,268.504 		"/>
	</g>
	<g>
		<path fill="none" stroke="#B8B8B7" stroke-width="0.25" d="M66.584,214.92c0,0-9.517,0-9.517,9.514v19.122
			c0,0,0,9.517,9.517,9.517h19.118c0,0,9.519,0,9.519-9.517v-19.122c0,0,0-9.514-9.519-9.514H66.584z"/>
	</g>
	<g>
		<defs>
			<path id="SVGID_40_" d="M165.376,214.92c0,0-9.519,0-9.519,9.514v19.122c0,0,0,9.517,9.519,9.517h19.117c0,0,9.52,0,9.52-9.517
				v-19.122c0,0,0-9.514-9.52-9.514H165.376z"/>
		</defs>
		<clipPath id="SVGID_41_">
			<use xlink:href="#SVGID_40_"  overflow="visible"/>
		</clipPath>
		
			<linearGradient id="SVGID_42_" gradientUnits="userSpaceOnUse" x1="200.3799" y1="451.3535" x2="201.262" y2="451.3535" gradientTransform="matrix(52.1242 -26.5586 -26.5586 -52.1242 1694.5625 29093.9375)">
			<stop  offset="0" style="stop-color:#D8D8D7"/>
			<stop  offset="1" style="stop-color:#636362"/>
		</linearGradient>
		<polygon clip-path="url(#SVGID_41_)" fill="url(#SVGID_42_)" points="140.425,222.789 186.15,199.487 209.446,245.21 
			163.719,268.504 		"/>
	</g>
	<g>
		<path fill="none" stroke="#B8B8B7" stroke-width="0.25" d="M165.376,214.92c0,0-9.519,0-9.519,9.514v19.122
			c0,0,0,9.517,9.519,9.517h19.117c0,0,9.52,0,9.52-9.517v-19.122c0,0,0-9.514-9.52-9.514H165.376z"/>
	</g>
	<g>
		<defs>
			<path id="SVGID_43_" d="M115.981,214.92c0,0-9.519,0-9.519,9.514v19.122c0,0,0,9.517,9.519,9.517h19.115c0,0,9.52,0,9.52-9.517
				v-19.122c0,0,0-9.514-9.52-9.514H115.981z"/>
		</defs>
		<clipPath id="SVGID_44_">
			<use xlink:href="#SVGID_43_"  overflow="visible"/>
		</clipPath>
		
			<linearGradient id="SVGID_45_" gradientUnits="userSpaceOnUse" x1="200.4805" y1="451.3008" x2="201.3631" y2="451.3008" gradientTransform="matrix(52.1242 -26.5586 -26.5586 -52.1242 1638.5781 29093.9375)">
			<stop  offset="0" style="stop-color:#D8D8D7"/>
			<stop  offset="1" style="stop-color:#636362"/>
		</linearGradient>
		<polygon clip-path="url(#SVGID_44_)" fill="url(#SVGID_45_)" points="91.032,222.789 136.75,199.487 160.051,245.21 
			114.326,268.504 		"/>
	</g>
	<g>
		<path fill="none" stroke="#B8B8B7" stroke-width="0.25" d="M115.981,214.92c0,0-9.519,0-9.519,9.514v19.122
			c0,0,0,9.517,9.519,9.517h19.115c0,0,9.52,0,9.52-9.517v-19.122c0,0,0-9.514-9.52-9.514H115.981z"/>
	</g>
	<g>
		<defs>
			<path id="SVGID_46_" d="M125.26,25.484c-1.986,0.007-4.217,0.76-6.449,2.993l-14.166,14.16c0,0-6.73,6.732,0,13.462
				l14.166,14.164c0,0,6.73,6.726,13.459,0L146.432,56.1c0,0,6.733-6.73,0-13.46l-14.162-14.162c0,0-2.977-2.977-6.951-2.993H125.26
				z"/>
		</defs>
		<clipPath id="SVGID_47_">
			<use xlink:href="#SVGID_46_"  overflow="visible"/>
		</clipPath>
		
			<linearGradient id="SVGID_48_" gradientUnits="userSpaceOnUse" x1="203.0273" y1="451.8926" x2="203.9097" y2="451.8926" gradientTransform="matrix(18.4031 -56.6389 -56.6389 -18.4031 21976.375 19889.9375)">
			<stop  offset="0" style="stop-color:#004993"/>
			<stop  offset="0.2423" style="stop-color:#044289"/>
			<stop  offset="0.656" style="stop-color:#0F316E"/>
			<stop  offset="1" style="stop-color:#1A1F52"/>
		</linearGradient>
		<polygon clip-path="url(#SVGID_47_)" fill="url(#SVGID_48_)" points="82.782,72.075 103.192,9.249 168.302,30.405 147.888,93.228 
					"/>
	</g>
	<g>
		<path fill="#1A1E51" d="M977.614,232.552c-3.356,2.198-9.492,6.871-17.079,6.871c-9.932,0-12.708-9.205-12.708-23.73
			c0-14.691,5.26-23.878,16.356-23.878c5.83,0,10.948,2.609,13.431,3.702V232.552z M988.718,202.772
			c0-4.931,0.583-6.701,1.896-10.145c1.318-3.291,2.636-3.979,2.636-5.078c0-0.262,0-0.414-0.589-0.814l-6.568-3.841
			c-0.297-0.139-0.733-0.275-1.307-0.275c-1.325,0-2.93,2.457-4.249,5.896c-1.902-1.38-7.597-5.896-17.233-5.896
			c-18.547,0-27.453,14.138-27.453,35.66c0,19.347,9.189,30.318,22.48,30.318c9.791,0,16.513-4.938,19.866-7.536
			c0,1.648,0.438,7.268,0.438,14.121c0,7.42-1.61,14.825-15.187,14.825c-10.072,0-18.837-5.363-20.005-5.363
			c-0.582,0-0.88,0.421-1.029,0.835l-2.331,4.665c-0.438,0.818-0.585,1.107-0.585,1.776c0,2.617,13.589,7.276,24.535,7.276
			c19.721,0,25.705-11.65,25.705-24.137c0-7.418-1.021-23.47-1.021-31.161V202.772z M905.765,235.296
			c-2.337,1.909-9.06,8.51-16.66,8.51c-7.439,0-10.658-6.18-10.658-11.651c0-14.42,20.892-14.42,27.318-14.544V235.296z
			 M916.867,201.825c0-11.529-5.699-19.206-22.499-19.206c-9.343,0-22.778,3.968-22.778,6.302c0,0.694,0.139,1.109,0.435,1.792
			l1.903,4.804c0.141,0.414,0.583,0.687,1.012,0.687c1.317,0,8.042-4.389,17.813-4.389c10.381,0,13.012,4.389,13.012,12.326v4.954
			c-9.06,0.279-38.27,0.681-38.27,23.875c0,12.199,7.444,19.332,18.988,19.332c12.117,0,19.281-7.669,21.028-9.188
			c0.728,1.933,3.359,9.188,5.556,9.188c0.285,0,0.585-0.13,1.166-0.415l5.702-3.289c0.573-0.269,1.311-0.536,1.311-1.085
			c0-0.825-2.047-3.431-2.627-5.086c-1.316-3.841-1.752-5.066-1.752-13.729V201.825z M836.093,188.786
			c0.294-0.547,0.729-1.367,0.729-1.784c0-3.161-13.878-6.713-22.78-6.713c-15.777,0-25.856,9.878-25.856,22.358
			c0,7.96,4.248,12.748,8.621,15.5c9.639,6.046,23.95,6.046,23.95,14.007c0,4.925-4.086,6.836-8.907,6.836
			c-9.056,0-20.306-6.021-20.896-6.021c-0.575,0-0.868,0.54-1.156,1.231l-3.216,7.809c-0.146,0.55-0.738,1.38-0.738,1.796
			c0,3.707,16.656,8.921,27.462,8.921c15.48,0,24.979-9.482,24.979-22.09c0-7.973-4.09-13.177-9.789-16.737
			c-10.371-6.456-23.514-5.902-23.514-13.303c0-4.666,4.099-6.584,9.636-6.584c9.349,0,16.511,3.551,16.945,3.551
			c0.149,0,0.875-0.561,1.174-1.236L836.093,188.786z M773.44,200.313c0-16.604-10.951-20.023-18.979-20.023
			c-11.543,0-18.112,5.906-22.354,9.456c-1.595-6.462-2.766-9.456-4.67-9.456c-0.581,0-1.313,0.125-2.193,0.416l-11.097,3.42
			c-1.019,0.271-1.607,0.833-1.607,1.509c0,3.152,2.771,2.061,2.771,21.411v41.408c0,1.533,0.301,1.942,2.05,1.942h14.46
			c1.753,0,2.046-0.409,2.046-1.942v-48.141c1.904-1.65,6.717-5.624,12.854-5.624c7.447,0,8.175,6.313,8.175,11.521v42.243
			c0,1.533,0.287,1.942,2.048,1.942h14.456c1.752,0,2.041-0.409,2.041-1.942V200.313z M698.964,216.505
			c0-22.081-12.127-36.216-31.7-36.216c-19.72,0-31.69,14.135-31.69,36.216s11.971,36.222,31.69,36.222
			C686.987,252.727,698.964,238.586,698.964,216.505 M667.264,238.99c-10.222,0-11.972-9.737-11.972-22.485
			c0-12.753,1.893-22.492,11.972-22.492c10.082,0,11.985,9.739,11.985,22.492C679.249,229.396,677.496,238.99,667.264,238.99
			 M622.878,162.319c0-6.317-5.401-11.253-11.977-11.253c-6.719,0-12.127,4.936-12.127,11.253c0,6.313,5.408,11.375,12.127,11.375
			C617.477,173.694,622.878,168.633,622.878,162.319 M620.253,184.534c0-1.507-0.299-1.915-2.045-1.915h-27.749
			c-1.754,0-2.052,0.408-2.052,1.915v8.921c0,1.51,0.298,1.915,2.052,1.915h11.245v53.083c0,1.533,0.281,1.942,2.038,1.942h14.466
			c1.746,0,2.045-0.409,2.045-1.942V184.534z M582.567,235.154c-0.144-0.544-0.587-0.823-1.17-0.823
			c-2.04,0-5.69,2.614-11.533,2.614c-4.971,0-4.971-3.976-4.971-8.369V195.37h14.464c1.754,0,2.183-0.122,2.623-2.06l1.9-8.096
			c0.15-0.534,0.15-0.819,0.15-1.09c0-1.506-1.175-1.506-2.491-1.506h-16.646v-19.223c0-1.633-0.144-2.32-1.461-2.32
			c-0.875,0-1.457,0.146-1.898,0.146l-12.847,1.638c-2.053,0.284-2.335,0.689-2.335,2.474v17.285h-10.378
			c-1.756,0-2.04,0.408-2.04,1.915v8.921c0,1.51,0.284,1.915,2.04,1.915h10.378v30.883c0,12.616,0,26.474,18.833,26.474
			c9.934,0,20.596-2.623,20.596-5.214c0-0.42-0.144-0.42-0.297-1.117L582.567,235.154z M522.683,248.878
			c1.03-0.28,1.61-0.816,1.61-1.506c0-3.153-2.771-2.073-2.771-21.413v-42.787c0-2.341-0.294-2.883-1.029-2.883
			c-0.583,0-2.043,0.416-2.481,0.416l-12.264,2.322c-1.75,0.413-2.783,0.559-2.783,2.456v48.577
			c-1.896,1.235-6.711,4.263-12.851,4.263c-7.444,0-8.179-6.334-8.179-11.526v-43.625c0-2.341-0.276-2.883-1.158-2.883
			c-0.441,0-1.905,0.416-2.338,0.416l-12.276,2.322c-1.751,0.413-2.767,0.559-2.767,2.456v47.204
			c0,16.608,10.949,20.039,18.984,20.039c11.532,0,18.396-4.788,22.342-8.094c1.611,5.471,2.772,8.094,4.669,8.094
			c0.589,0,1.321-0.139,2.194-0.425L522.683,248.878z M449.372,236.521c-0.145-0.545-0.585-0.813-1.176-0.813
			c-0.869,0-2.765,1.237-5.695,1.237c-4.086,0-4.086-3.848-4.086-8.247v-74.762c0-2.325-0.289-2.87-1.463-2.87
			c-0.287,0-1.602,0.402-2.043,0.402l-12.271,2.338c-1.749,0.401-2.773,0.401-2.773,2.463v69.983c0,12.616,0,26.474,17.966,26.474
			c7.013,0,14.753-1.926,14.753-3.849c0-0.425-0.143-0.425-0.285-1.09L449.372,236.521z M404.094,216.505
			c0-22.081-12.119-36.216-31.694-36.216c-19.716,0-31.697,14.135-31.697,36.216s11.98,36.222,31.697,36.222
			C392.112,252.727,404.094,238.586,404.094,216.505 M372.4,238.99c-10.224,0-11.982-9.737-11.982-22.485
			c0-12.753,1.899-22.492,11.982-22.492c10.074,0,11.979,9.739,11.979,22.492C384.379,229.396,382.625,238.99,372.4,238.99
			 M327.413,188.786c0.3-0.547,0.73-1.367,0.73-1.784c0-3.161-13.869-6.713-22.784-6.713c-15.772,0-25.853,9.878-25.853,22.358
			c0,7.96,4.234,12.748,8.621,15.5c9.635,6.046,23.953,6.046,23.953,14.007c0,4.925-4.096,6.836-8.908,6.836
			c-9.052,0-20.302-6.021-20.893-6.021c-0.574,0-0.873,0.54-1.156,1.231l-3.221,7.809c-0.151,0.55-0.722,1.38-0.722,1.796
			c0,3.707,16.642,8.921,27.45,8.921c15.482,0,24.969-9.482,24.969-22.09c0-7.973-4.092-13.177-9.774-16.737
			c-10.371-6.456-23.519-5.902-23.519-13.303c0-4.666,4.087-6.584,9.645-6.584c9.339,0,16.506,3.551,16.937,3.551
			c0.14,0,0.87-0.561,1.168-1.236L327.413,188.786z"/>
		<path fill="#636362" d="M990.305,66.481c0.299-0.539,0.736-1.367,0.736-1.77c0-3.158-13.865-6.72-22.782-6.72
			c-15.778,0-25.854,9.884-25.854,22.369c0,7.95,4.234,12.759,8.616,15.491c9.642,6.027,23.953,6.027,23.953,13.992
			c0,4.932-4.087,6.865-8.91,6.865c-9.051,0-20.306-6.043-20.88-6.043c-0.588,0-0.875,0.558-1.171,1.232l-3.211,7.825
			c-0.145,0.549-0.732,1.387-0.732,1.797c0,3.684,16.654,8.903,27.462,8.903c15.471,0,24.972-9.473,24.972-22.082
			c0-7.955-4.09-13.172-9.781-16.745c-10.379-6.445-23.518-5.903-23.518-13.305c0-4.665,4.092-6.581,9.629-6.581
			c9.357,0,16.512,3.559,16.939,3.559c0.163,0,0.881-0.541,1.175-1.232L990.305,66.481z M927.674,78.025
			c0-16.601-10.962-20.034-18.991-20.034c-11.542,0-18.11,5.905-22.351,9.456c-1.607-6.439-2.775-9.456-4.667-9.456
			c-0.591,0-1.319,0.136-2.197,0.415l-11.103,3.426c-1.016,0.273-1.609,0.819-1.609,1.521c0,3.127,2.787,2.04,2.787,21.389v41.419
			c0,1.517,0.278,1.918,2.04,1.918h14.456c1.755,0,2.049-0.401,2.049-1.918V78.025c1.896-1.659,6.71-5.637,12.85-5.637
			c7.453,0,8.185,6.317,8.185,11.522v42.251c0,1.517,0.284,1.918,2.043,1.918h14.459c1.751,0,2.05-0.401,2.05-1.918V78.025z
			 M853.178,94.208c0-22.085-12.116-36.217-31.695-36.217c-19.709,0-31.686,14.132-31.686,36.217
			c0,22.083,11.977,36.213,31.686,36.213C841.198,130.422,853.178,116.292,853.178,94.208 M821.482,116.708
			c-10.224,0-11.979-9.738-11.979-22.5c0-12.757,1.911-22.5,11.979-22.5c10.08,0,11.977,9.743,11.977,22.5
			C833.459,107.095,831.712,116.708,821.482,116.708 M777.103,40.004c0-6.295-5.408-11.238-11.984-11.238
			c-6.725,0-12.116,4.943-12.116,11.238c0,6.325,5.392,11.409,12.116,11.409C771.694,51.414,777.103,46.329,777.103,40.004
			 M774.463,62.255c0-1.524-0.288-1.943-2.045-1.943h-27.75c-1.75,0-2.041,0.419-2.041,1.943v8.903c0,1.516,0.291,1.906,2.041,1.906
			h11.247v53.097c0,1.517,0.296,1.918,2.045,1.918h14.458c1.757,0,2.045-0.401,2.045-1.918V62.255z M736.781,112.874
			c-0.138-0.553-0.58-0.832-1.167-0.832c-2.042,0-5.702,2.616-11.537,2.616c-4.97,0-4.97-3.994-4.97-8.381V73.065h14.465
			c1.755,0,2.198-0.124,2.629-2.044l1.898-8.083c0.149-0.559,0.149-0.833,0.149-1.106c0-1.52-1.175-1.52-2.479-1.52h-16.663V41.116
			c0-1.661-0.138-2.337-1.453-2.337c-0.874,0-1.459,0.136-1.9,0.136l-12.858,1.652c-2.032,0.282-2.327,0.678-2.327,2.473v17.273
			h-10.369c-1.748,0-2.052,0.419-2.052,1.943v8.903c0,1.516,0.304,1.906,2.052,1.906h10.369v30.877c0,12.627,0,26.48,18.84,26.48
			c9.93,0,20.595-2.602,20.595-5.219c0-0.405-0.152-0.405-0.297-1.086L736.781,112.874z M659.237,112.445
			c-1.757,1.666-5.558,5.221-10.962,5.221c-5.542,0-9.625-3.979-9.625-9.326c0-12.081,16.93-10.974,20.587-10.974V112.445z
			 M679.247,125.608c0.718-0.25,1.307-0.67,1.307-1.234c0-2.729-3.798-4.511-3.798-17.816V80.075
			c0-14.275-6.859-22.084-25.114-22.084c-11.252,0-25.708,3.286-25.708,6.441c0,0.543,0.148,1.109,0.436,1.664l2.929,8.355
			c0.139,0.547,0.719,1.378,1.454,1.378c1.895,0,9.938-4.121,18.118-4.121c9.19,0,10.367,3.966,10.367,10.147v4.262
			c-11.542,0-38.124,0-38.124,23.178c0,12.897,8.473,21.125,21.908,21.125c10.953,0,16.07-5.483,18.988-8.229
			c0.729,3.415,2.923,8.229,4.236,8.229c0.584,0,1.309-0.406,1.899-0.539L679.247,125.608z M614.396,64.304
			c0.151-0.278,0.587-1.366,0.731-2.337c0-1.102-1.018-1.235-3.209-1.514l-9.938-1.244c-0.437,0-2.044-0.118-2.335-0.118
			c-1.176,0-1.607,1.221-2.044,2.741l-9.929,30.862c-1.758,5.347-4.094,14.952-4.972,19.887h-0.284
			c-0.881-5.072-3.071-14.392-4.69-19.887l-8.899-30.862c-0.44-1.379-0.878-2.741-2.042-2.741c-0.296,0-1.9,0.118-2.345,0.118
			l-12.117,1.244c-2.189,0.279-3.212,0.413-3.212,1.514c0.14,0.971,0.579,2.06,0.731,2.337l23.221,63.245
			c0.583,1.508,0.735,1.773,2.771,1.773h11.98c2.046,0,2.188-0.265,2.771-1.773L614.396,64.304z M542.093,94.208
			c0-22.085-12.118-36.217-31.684-36.217c-19.723,0-31.7,14.132-31.7,36.217c0,22.083,11.977,36.213,31.7,36.213
			C530.125,130.422,542.093,116.292,542.093,94.208 M510.409,116.708c-10.228,0-11.982-9.738-11.982-22.5
			c0-12.757,1.908-22.5,11.982-22.5c10.073,0,11.976,9.743,11.976,22.5C522.385,107.095,520.635,116.708,510.409,116.708
			 M465.001,78.025c0-16.601-10.953-20.034-18.991-20.034c-11.549,0-18.113,5.905-22.354,9.456
			c-1.596-6.439-2.768-9.456-4.673-9.456c-0.578,0-1.313,0.136-2.184,0.415l-11.104,3.426c-1.021,0.273-1.608,0.819-1.608,1.521
			c0,3.127,2.777,2.04,2.777,21.389v41.419c0,1.517,0.294,1.918,2.045,1.918h14.459c1.75,0,2.042-0.401,2.042-1.918V78.025
			c1.905-1.659,6.72-5.637,12.856-5.637c7.446,0,8.173,6.317,8.173,11.522v42.251c0,1.517,0.301,1.918,2.048,1.918h14.465
			c1.752,0,2.047-0.401,2.047-1.918V78.025z M386.551,78.025c0-16.601-10.944-20.034-18.974-20.034
			c-11.54,0-18.112,5.905-22.342,9.456c-1.614-6.439-2.781-9.456-4.682-9.456c-0.577,0-1.307,0.136-2.188,0.415l-11.101,3.426
			c-1.017,0.273-1.605,0.819-1.605,1.521c0,3.127,2.779,2.04,2.779,21.389v41.419c0,1.517,0.289,1.918,2.043,1.918h14.454
			c1.758,0,2.044-0.401,2.044-1.918V78.025c1.905-1.659,6.724-5.637,12.858-5.637c7.442,0,8.179,6.317,8.179,11.522v42.251
			c0,1.517,0.293,1.918,2.042,1.918h14.464c1.745,0,2.028-0.401,2.028-1.918V78.025z M309.159,40.004
			c0-6.295-5.409-11.238-11.98-11.238c-6.71,0-12.125,4.943-12.125,11.238c0,6.325,5.415,11.409,12.125,11.409
			C303.75,51.414,309.159,46.329,309.159,40.004 M306.526,62.255c0-1.524-0.293-1.943-2.05-1.943h-27.741
			c-1.756,0-2.045,0.419-2.045,1.943v8.903c0,1.516,0.289,1.906,2.045,1.906h11.247v53.097c0,1.517,0.292,1.918,2.041,1.918h14.453
			c1.757,0,2.05-0.401,2.05-1.918V62.255z"/>
	</g>
</g>
</svg>
