<?xml version="1.0" encoding="utf-8"?>
<!-- Generator: Adobe Illustrator 16.0.0, SVG Export Plug-In . SVG Version: 6.00 Build 0)  -->
<!DOCTYPE svg PUBLIC "-//W3C//DTD SVG 1.1//EN" "http://www.w3.org/Graphics/SVG/1.1/DTD/svg11.dtd">
<svg version="1.1" id="Ebene_1" xmlns="http://www.w3.org/2000/svg" xmlns:xlink="http://www.w3.org/1999/xlink" x="0px" y="0px"
	 width="960px" height="250px" viewBox="0 0 960 250" enable-background="new 0 0 960 250" xml:space="preserve">
<g>
	<path fill="#FFFFFF" d="M180.979,166.668c-2.217,0.097-4.241,0.169-6.071,0.216c-1.831,0.05-3.565,0.073-5.202,0.073
		c-5.493,5.687-10.529,9.589-15.105,11.707c-4.579,2.122-8.94,3.084-13.082,2.891c-2.891-0.097-5.614-0.6-8.167-1.517
		c-2.554-0.915-4.723-2.167-6.505-3.759c-1.784-1.59-3.132-3.443-4.046-5.563c-0.917-2.119-1.229-4.432-0.94-6.938
		c0.481-4.239,1.662-7.467,3.541-9.684c1.879-2.217,3.998-3.759,6.361-4.627c2.36-0.867,4.698-1.203,7.009-1.012
		c2.313,0.195,4.144,0.531,5.493,1.012c1.251,0.578,2.144,1.35,2.675,2.313c0.528,0.964,0.722,1.879,0.578,2.745
		c-0.144,0.867-0.578,1.544-1.301,2.025c-0.722,0.481-1.662,0.481-2.819,0c-1.929-0.771-3.663-0.891-5.204-0.362
		c-1.542,0.53-2.795,1.398-3.758,2.601c-0.964,1.207-1.589,2.628-1.879,4.265c-0.288,1.641-0.169,3.205,0.362,4.698
		c0.529,1.494,1.541,2.746,3.036,3.758c1.492,1.012,3.588,1.518,6.287,1.518c4.142,0,8.575-1.926,13.298-5.781
		c-1.832-0.095-2.963-0.553-3.396-1.374c-0.434-0.817-0.387-1.733,0.144-2.745c0.528-1.014,1.396-1.953,2.601-2.818
		c1.204-0.867,2.53-1.349,3.976-1.445c0.578,0,1.349,0,2.313,0c0.962,0,2.07-0.049,3.325-0.146
		c4.336-4.816,8.719-10.453,13.152-16.91c4.432-6.455,8.818-13.104,13.154-19.947c4.336-6.841,8.601-13.563,12.792-20.165
		c4.192-6.599,8.213-12.502,12.069-17.706c0.963-1.251,2.144-2.023,3.542-2.313c1.396-0.288,2.648-0.166,3.758,0.362
		c1.106,0.531,1.854,1.398,2.239,2.601c0.384,1.207,0.096,2.581-0.867,4.12c-3.276,5.11-6.529,10.746-9.756,16.913
		c-3.23,6.168-6.215,12.383-8.962,18.646c-2.747,6.266-5.182,12.312-7.299,18.141c-2.122,5.831-3.686,10.984-4.698,15.467
		c-1.012,4.48-1.423,8.094-1.229,10.84c0.192,2.746,1.204,4.119,3.036,4.119c0.672,0,1.518-0.168,2.529-0.506
		c1.011-0.336,2.07-0.795,3.18-1.373c1.106-0.578,2.191-1.252,3.251-2.023c1.06-0.771,2.025-1.59,2.892-2.457
		c1.734-1.734,3.082-3.108,4.047-4.119c0.961-1.012,2.071-2.336,3.324-3.975c0.578-0.868,1.374-1.324,2.385-1.374
		c1.011-0.047,1.951,0.145,2.818,0.578c0.868,0.434,1.493,1.036,1.879,1.808c0.384,0.771,0.24,1.589-0.434,2.457
		c-0.964,1.155-2.266,2.723-3.902,4.697c-1.639,1.977-3.711,4.217-6.215,6.721c-1.639,1.543-3.133,2.844-4.481,3.902
		c-1.35,1.063-2.698,1.93-4.046,2.604c-1.352,0.674-2.747,1.155-4.192,1.445c-1.445,0.287-3.084,0.434-4.914,0.434
		c-4.048,0-6.939-1.397-8.674-4.192c-1.734-2.794-2.507-6.505-2.312-11.131C181.99,166.572,181.459,166.668,180.979,166.668z
		 M189.94,139.928c-2.313,3.662-4.552,7.034-6.721,10.117c-2.169,3.085-4.264,5.926-6.287,8.528
		c1.348-0.096,2.601-0.144,3.758-0.144c1.155,0,2.117,0,2.891,0C184.929,152.455,187.05,146.287,189.94,139.928z"/>
	<path fill="#FFFFFF" d="M223.618,138.916c0.384-0.867,1.204-1.422,2.457-1.663c1.251-0.239,2.48-0.216,3.686,0.072
		c1.203,0.29,2.191,0.82,2.963,1.591c0.771,0.771,0.915,1.733,0.434,2.891l-0.868,1.733l0.578-0.434
		c2.697-2.312,5.01-3.853,6.939-4.624c1.926-0.771,3.589-1.061,4.986-0.867s2.553,0.771,3.47,1.734
		c0.915,0.963,1.662,2.073,2.239,3.324c0.868,1.928,0.891,4.072,0.074,6.432c-0.821,2.363-2.05,5.036-3.687,8.022
		c-1.062,2.12-2.168,4.12-3.324,5.999c-1.157,1.878-2.313,3.83-3.469,5.854c-0.579,1.062-0.845,1.759-0.795,2.096
		c0.047,0.34,0.288,0.459,0.722,0.361c0.434-0.094,0.94-0.312,1.519-0.65c0.578-0.336,1.106-0.697,1.589-1.084
		c2.119-1.637,4.214-3.516,6.288-5.637c2.072-2.119,3.733-3.998,4.987-5.637c0.578-0.868,1.372-1.324,2.385-1.374
		c1.011-0.047,1.926,0.145,2.745,0.578c0.817,0.434,1.422,1.036,1.807,1.808c0.384,0.771,0.29,1.589-0.289,2.457
		c-0.483,0.577-1.133,1.423-1.953,2.528c-0.819,1.108-1.758,2.291-2.817,3.542c-1.062,1.253-2.241,2.555-3.542,3.902
		c-1.301,1.35-2.626,2.602-3.974,3.759c-2.603,2.313-4.939,3.902-7.011,4.77c-2.073,0.868-3.902,1.276-5.493,1.228
		c-1.59-0.049-2.916-0.506-3.975-1.371c-1.062-0.868-1.879-1.928-2.457-3.181c-0.964-1.927-1.083-4.07-0.362-6.433
		c0.724-2.36,1.901-5.082,3.542-8.167c0.383-0.771,0.866-1.685,1.445-2.747c0.578-1.059,1.178-2.142,1.806-3.25
		c0.626-1.107,1.204-2.17,1.735-3.181c0.529-1.012,1.035-1.854,1.518-2.529c0.579-1.06,0.817-1.757,0.723-2.097
		c-0.097-0.337-0.412-0.456-0.939-0.361c-0.531,0.097-1.134,0.314-1.807,0.65c-0.675,0.339-1.301,0.7-1.879,1.084
		c-1.542,1.063-3.132,2.241-4.77,3.541c-1.64,1.301-3.132,2.627-4.48,3.976c-0.964,2.313-1.951,4.626-2.964,6.938
		c-1.011,2.313-1.951,4.481-2.818,6.505c-0.866,2.023-1.615,3.758-2.239,5.203c-0.628,1.445-1.085,2.457-1.374,3.035
		c-0.675,1.352-1.735,2.216-3.181,2.603c-1.445,0.384-2.818,0.362-4.118-0.071c-1.301-0.435-2.288-1.252-2.964-2.457
		c-0.672-1.205-0.578-2.723,0.29-4.555c0.868-1.926,2.048-4.456,3.541-7.588c1.496-3.131,3.037-6.408,4.626-9.83
		c1.589-3.418,3.13-6.768,4.626-10.045C221.28,144.023,222.556,141.228,223.618,138.916z"/>
	<path fill="#FFFFFF" d="M278.543,158.43c0.578-0.868,1.374-1.324,2.385-1.374c1.011-0.047,1.951,0.145,2.818,0.578
		c0.868,0.434,1.493,1.036,1.879,1.808c0.384,0.771,0.238,1.589-0.434,2.457c-0.964,1.252-2.241,2.844-3.83,4.77
		c-1.591,1.929-3.687,4.145-6.289,6.648c-1.639,1.543-3.132,2.844-4.48,3.902c-1.35,1.063-2.698,1.93-4.046,2.604
		c-1.352,0.674-2.747,1.155-4.192,1.445c-1.445,0.287-3.036,0.434-4.77,0.434c-4.916,0-7.781-2-8.6-6
		c-0.818-3.998,0.747-9.323,4.696-15.973c0.867-1.445,1.782-3.057,2.747-4.842c0.963-1.781,1.951-3.54,2.963-5.275
		c1.013-1.734,1.975-3.371,2.892-4.914c0.915-1.541,1.708-2.842,2.385-3.902c0.866-1.348,1.974-2.216,3.325-2.603
		c1.348-0.384,2.576-0.384,3.685,0c1.107,0.387,1.951,1.036,2.531,1.951c0.578,0.917,0.48,2.001-0.29,3.253
		c-1.062,1.832-2.266,3.975-3.614,6.433c-1.35,2.457-2.554,4.649-3.613,6.575c-1.062,1.93-2.097,3.758-3.108,5.494
		c-1.012,1.734-1.831,3.324-2.457,4.77c-0.628,1.445-1.062,2.674-1.301,3.686c-0.241,1.012-0.122,1.712,0.362,2.096
		c0.48,0.484,1.179,0.604,2.097,0.361c0.915-0.239,1.901-0.698,2.963-1.373c1.059-0.674,2.119-1.445,3.179-2.313
		s2.025-1.734,2.893-2.602c1.636-1.734,2.938-3.108,3.902-4.119C276.181,161.393,277.29,160.068,278.543,158.43z M284.469,126.195
		c-0.482,0.772-1.109,1.543-1.879,2.313c-0.772,0.772-1.398,1.35-1.879,1.733c-1.253,0.773-2.554,1.301-3.902,1.591
		c-1.35,0.288-2.482,0.339-3.396,0.144c-0.917-0.191-1.542-0.673-1.879-1.445c-0.338-0.77-0.072-1.828,0.795-3.18
		c0.289-0.578,0.722-1.323,1.3-2.24c0.58-0.915,1.107-1.757,1.591-2.53c0.771-1.156,1.829-1.854,3.179-2.095
		c1.348-0.24,2.603-0.168,3.758,0.216c1.157,0.387,2.025,1.062,2.603,2.025C285.336,123.69,285.24,124.847,284.469,126.195z"/>
	<path fill="#FFFFFF" d="M316.413,162.476c0.384-0.771,0.866-1.685,1.445-2.747c0.578-1.059,1.178-2.142,1.806-3.25
		c0.626-1.107,1.204-2.17,1.735-3.181c0.529-1.012,1.035-1.854,1.518-2.529c0.579-1.06,0.795-1.757,0.651-2.097
		c-0.146-0.337-0.484-0.456-1.012-0.361c-0.531,0.097-1.135,0.314-1.807,0.65c-0.675,0.339-1.254,0.7-1.735,1.084
		c-2.313,1.543-4.577,3.277-6.793,5.204c-0.194,0.29-0.362,0.603-0.506,0.939c-0.146,0.338-0.315,0.649-0.506,0.939
		c-0.58,1.062-1.398,2.698-2.457,4.914c-1.062,2.219-2.169,4.53-3.325,6.938c-1.157,2.41-2.266,4.723-3.324,6.938
		c-1.062,2.219-1.879,3.809-2.458,4.77c-0.578,1.061-1.494,1.735-2.745,2.025c-1.254,0.287-2.435,0.263-3.542-0.072
		c-1.108-0.34-2.001-0.939-2.673-1.807c-0.677-0.868-0.724-1.88-0.146-3.037c0.384-0.77,1.229-2.479,2.53-5.13
		c1.3-2.649,2.673-5.493,4.119-8.528c1.445-3.036,2.793-5.855,4.048-8.456c1.251-2.603,2.117-4.239,2.601-4.914
		c0.578-1.06,0.795-1.757,0.651-2.097c-0.146-0.337-0.459-0.456-0.939-0.361c-0.484,0.097-1.085,0.314-1.807,0.65
		c-0.724,0.339-1.326,0.7-1.807,1.084c-1.64,1.063-3.375,2.338-5.204,3.83c-1.832,1.496-3.422,2.963-4.77,4.408l-9.106,20.959
		c-0.675,1.352-1.735,2.216-3.181,2.603c-1.445,0.384-2.818,0.362-4.118-0.071c-1.301-0.435-2.288-1.252-2.964-2.457
		c-0.672-1.205-0.578-2.723,0.29-4.555c0.868-1.926,2.048-4.456,3.541-7.588c1.496-3.131,3.037-6.408,4.626-9.83
		c1.589-3.418,3.13-6.768,4.626-10.045c1.492-3.275,2.769-6.071,3.83-8.383c0.384-0.867,1.204-1.422,2.457-1.663
		c1.251-0.239,2.48-0.216,3.686,0.072c1.203,0.29,2.191,0.82,2.963,1.591c0.771,0.771,0.915,1.733,0.434,2.891l-1.012,2.313
		l1.156-1.013c2.697-2.312,5.009-3.853,6.938-4.624c1.926-0.771,3.589-1.061,4.986-0.867c1.396,0.193,2.552,0.771,3.47,1.734
		c0.915,0.963,1.662,2.073,2.24,3.324l0.434,1.156c0.192-0.096,0.481-0.337,0.868-0.724c2.696-2.312,5.009-3.853,6.938-4.624
		c1.926-0.771,3.588-1.061,4.986-0.867c1.396,0.193,2.553,0.771,3.469,1.734c0.915,0.963,1.663,2.073,2.241,3.324
		c0.962,1.928,1.012,4.072,0.145,6.432c-0.866,2.363-2.121,5.036-3.757,8.022c-1.062,2.12-2.169,4.12-3.325,5.999
		c-1.157,1.878-2.313,3.83-3.47,5.854c-0.578,1.062-0.844,1.759-0.794,2.096c0.047,0.34,0.288,0.459,0.722,0.361
		c0.434-0.094,0.939-0.312,1.517-0.65c0.578-0.336,1.107-0.697,1.591-1.084c2.214-1.637,4.336-3.516,6.359-5.637
		c2.023-2.119,3.661-3.998,4.914-5.637c0.58-0.868,1.374-1.324,2.385-1.374c1.012-0.047,1.951,0.145,2.819,0.578
		c0.867,0.434,1.494,1.036,1.879,1.808c0.384,0.771,0.24,1.589-0.434,2.457c-0.482,0.577-1.134,1.423-1.951,2.528
		c-0.819,1.108-1.759,2.291-2.819,3.542c-1.062,1.253-2.217,2.555-3.469,3.902c-1.252,1.35-2.554,2.602-3.902,3.759
		c-2.7,2.313-5.084,3.902-7.155,4.77c-2.073,0.868-3.902,1.276-5.493,1.228c-1.589-0.049-2.916-0.506-3.975-1.371
		c-1.062-0.868-1.879-1.928-2.457-3.181c-0.867-1.927-0.939-4.07-0.217-6.433C313.594,168.282,314.773,165.561,316.413,162.476z"/>
	<path fill="#FFFFFF" d="M383.479,158.43c0.674-0.868,1.519-1.324,2.531-1.374c1.012-0.047,1.951,0.145,2.819,0.578
		c0.866,0.434,1.492,1.036,1.879,1.808c0.384,0.771,0.238,1.589-0.434,2.457c-0.484,0.577-1.134,1.423-1.951,2.528
		c-0.821,1.108-1.785,2.291-2.893,3.542c-1.108,1.253-2.289,2.555-3.541,3.902c-1.253,1.35-2.554,2.602-3.902,3.759
		c-2.603,2.313-4.916,3.902-6.938,4.77c-2.023,0.868-3.807,1.251-5.348,1.155c-1.542-0.097-2.843-0.577-3.902-1.445
		c-1.062-0.867-1.976-1.879-2.747-3.034c-1.542,0.964-3.205,1.976-4.986,3.034c-1.785,1.063-4.46,1.592-8.022,1.592
		c-2.507,0-4.676-0.58-6.505-1.735c-1.832-1.155-3.181-2.794-4.048-4.914c-0.866-2.118-1.156-4.647-0.866-7.589
		c0.288-2.939,1.397-6.143,3.325-9.613c1.829-3.469,4.021-6.479,6.575-9.033c2.553-2.552,5.132-4.648,7.734-6.287
		c2.601-1.637,5.13-2.842,7.588-3.613c2.457-0.771,4.6-1.157,6.432-1.157c1.251,0,2.335,0.169,3.252,0.506
		c0.915,0.339,1.757,0.748,2.529,1.229c0.771,0.483,1.494,1.061,2.169,1.733c0.578-1.155,1.54-1.999,2.891-2.529
		c1.349-0.528,2.625-0.722,3.831-0.577c1.204,0.144,2.119,0.602,2.747,1.373c0.625,0.771,0.553,1.832-0.218,3.18
		c-0.772,1.543-1.733,3.445-2.891,5.71c-1.156,2.265-2.361,4.577-3.613,6.937c-1.254,2.363-2.435,4.579-3.542,6.649
		c-1.109,2.073-2.001,3.591-2.673,4.554c-0.579,1.062-0.795,1.806-0.651,2.24c0.146,0.434,0.555,0.627,1.229,0.578
		c0.673-0.048,1.445-0.311,2.313-0.795c0.867-0.48,1.733-1.156,2.601-2.023c1.638-1.734,2.963-3.108,3.976-4.119
		C381.24,161.393,382.324,160.068,383.479,158.43z M362.233,162.476c1.445-1.829,2.625-3.687,3.541-5.565
		c0.915-1.877,1.589-3.612,2.023-5.202c0.434-1.591,0.601-2.986,0.505-4.192c-0.097-1.203-0.531-2.096-1.3-2.674
		c-0.773-0.578-1.76-0.746-2.964-0.506c-1.206,0.24-2.506,0.795-3.902,1.662c-1.398,0.867-2.844,2.023-4.336,3.469
		c-1.495,1.445-2.963,3.086-4.408,4.914c-1.445,1.93-2.651,3.809-3.614,5.638c-0.964,1.832-1.661,3.541-2.095,5.132
		c-0.434,1.59-0.578,2.988-0.434,4.191c0.144,1.206,0.602,2.096,1.373,2.674c0.674,0.578,1.613,0.773,2.819,0.578
		c1.203-0.191,2.529-0.723,3.975-1.59s2.914-2.023,4.408-3.469C359.317,166.09,360.788,164.404,362.233,162.476z"/>
	<path fill="#FFFFFF" d="M407.761,135.302l-11.997,21.103c-1.062,1.93-2.097,3.758-3.108,5.494c-1.012,1.734-1.831,3.324-2.457,4.77
		c-0.628,1.445-1.062,2.674-1.301,3.686c-0.241,1.012-0.122,1.712,0.362,2.096c0.481,0.484,1.179,0.604,2.097,0.361
		c0.915-0.239,1.879-0.698,2.891-1.373c1.012-0.674,2.045-1.445,3.107-2.313c1.06-0.867,2.023-1.734,2.891-2.602
		c1.735-1.734,3.083-3.108,4.048-4.119c0.961-1.012,2.07-2.336,3.324-3.975c0.578-0.868,1.374-1.324,2.385-1.374
		c1.011-0.047,1.951,0.145,2.818,0.578c0.868,0.434,1.493,1.036,1.879,1.808c0.384,0.771,0.238,1.589-0.434,2.457
		c-0.964,1.252-2.266,2.844-3.902,4.77c-1.641,1.929-3.711,4.145-6.216,6.648c-1.64,1.543-3.132,2.844-4.48,3.902
		c-1.35,1.063-2.698,1.93-4.046,2.604c-1.352,0.674-2.747,1.155-4.192,1.445c-1.446,0.287-3.037,0.434-4.77,0.434
		c-4.916,0-7.781-2-8.6-6c-0.818-3.998,0.747-9.323,4.696-15.973c0.484-0.865,1.204-2.167,2.168-3.902
		c0.962-1.732,2.096-3.708,3.397-5.926c1.301-2.215,2.674-4.575,4.12-7.082c1.446-2.506,2.841-4.963,4.192-7.373
		c-0.773,0.098-1.591,0.146-2.458,0.146c-0.866,0-1.734,0-2.601,0c-2.023,0-3.325-0.409-3.902-1.229
		c-0.578-0.817-0.628-1.757-0.144-2.819c0.48-1.059,1.348-2.023,2.601-2.891c1.251-0.867,2.649-1.348,4.192-1.445
		c0.771,0,1.782,0,3.035,0c1.251,0,2.65-0.047,4.192-0.145l3.18-5.203c0.868-1.348,1.973-2.216,3.325-2.603
		c1.348-0.384,2.601-0.384,3.758,0c1.155,0.387,1.998,1.037,2.529,1.951c0.528,0.917,0.456,2.001-0.218,3.252l-1.445,2.458
		c1.445,0,2.794,0,4.048,0c1.251,0,2.263-0.047,3.035-0.145c1.445,0,2.313,0.412,2.603,1.229c0.288,0.819,0.191,1.733-0.29,2.745
		c-0.484,1.014-1.253,1.977-2.313,2.893c-1.062,0.916-2.217,1.371-3.469,1.371L407.761,135.302z"/>
	<path fill="#FFFFFF" d="M431.755,158.43c0.578-0.868,1.374-1.324,2.385-1.374c1.011-0.047,1.951,0.145,2.818,0.578
		c0.868,0.434,1.493,1.036,1.879,1.808c0.384,0.771,0.238,1.589-0.434,2.457c-0.964,1.252-2.241,2.844-3.83,4.77
		c-1.591,1.929-3.687,4.145-6.289,6.648c-1.639,1.543-3.132,2.844-4.48,3.902c-1.35,1.063-2.698,1.93-4.046,2.604
		c-1.352,0.674-2.747,1.155-4.192,1.445c-1.445,0.287-3.036,0.434-4.77,0.434c-4.916,0-7.781-2-8.6-6
		c-0.818-3.998,0.747-9.323,4.696-15.973c0.867-1.445,1.782-3.057,2.747-4.842c0.963-1.781,1.951-3.54,2.963-5.275
		c1.013-1.734,1.975-3.371,2.892-4.914c0.915-1.541,1.708-2.842,2.385-3.902c0.866-1.348,1.973-2.216,3.325-2.603
		c1.348-0.384,2.576-0.384,3.685,0c1.107,0.387,1.951,1.036,2.531,1.951c0.578,0.917,0.48,2.001-0.29,3.253
		c-1.062,1.832-2.266,3.975-3.614,6.433c-1.35,2.457-2.554,4.649-3.613,6.575c-1.062,1.93-2.097,3.758-3.108,5.494
		c-1.012,1.734-1.831,3.324-2.457,4.77c-0.628,1.445-1.062,2.674-1.301,3.686c-0.241,1.012-0.122,1.712,0.362,2.096
		c0.48,0.484,1.179,0.604,2.097,0.361c0.915-0.239,1.901-0.698,2.963-1.373c1.059-0.674,2.119-1.445,3.179-2.313
		s2.025-1.734,2.893-2.602c1.636-1.734,2.938-3.108,3.902-4.119C429.392,161.393,430.501,160.068,431.755,158.43z M437.681,126.195
		c-0.482,0.772-1.109,1.543-1.879,2.313c-0.772,0.772-1.398,1.35-1.879,1.733c-1.253,0.773-2.554,1.301-3.902,1.591
		c-1.35,0.288-2.482,0.339-3.396,0.144c-0.917-0.191-1.542-0.673-1.879-1.445c-0.338-0.77-0.072-1.828,0.795-3.18
		c0.289-0.578,0.722-1.323,1.3-2.24c0.58-0.915,1.107-1.757,1.591-2.53c0.77-1.156,1.829-1.854,3.179-2.095
		c1.348-0.24,2.603-0.168,3.758,0.216c1.157,0.387,2.025,1.062,2.603,2.025C438.548,123.69,438.451,124.847,437.681,126.195z"/>
	<path fill="#FFFFFF" d="M476.273,158.43c0.578-0.868,1.373-1.324,2.385-1.374c1.012-0.047,1.927,0.122,2.745,0.506
		c0.817,0.386,1.397,0.989,1.735,1.808c0.337,0.818,0.218,1.661-0.361,2.529c-0.772,1.155-1.904,2.457-3.397,3.902
		c-1.495,1.445-3.252,2.725-5.275,3.83c-2.023,1.108-4.168,1.879-6.432,2.313c-2.266,0.434-4.459,0.218-6.577-0.65
		c-2.796,3.086-5.903,5.543-9.324,7.371c-3.421,1.832-6.818,2.747-10.189,2.747c-2.507,0-4.676-0.577-6.505-1.735
		c-1.832-1.155-3.206-2.696-4.12-4.624s-1.374-4.216-1.374-6.866s0.531-5.467,1.591-8.457c1.156-2.984,2.696-5.803,4.625-8.454
		c1.926-2.649,4.094-4.962,6.503-6.938c2.409-1.974,4.938-3.541,7.589-4.698c2.649-1.155,5.275-1.735,7.878-1.735
		c2.601,0,4.817,0.58,6.649,1.735c1.829,1.157,3.202,2.725,4.118,4.698c0.915,1.977,1.374,4.289,1.374,6.938
		c0,2.651-0.531,5.47-1.59,8.454c-0.29,0.773-0.578,1.496-0.867,2.17c-0.29,0.674-0.628,1.35-1.012,2.022
		c1.445,0.097,3.106-0.384,4.985-1.445C473.31,161.417,474.922,160.068,476.273,158.43z M459.217,159.151
		c1.54-3.372,1.926-6.237,1.156-8.601c-0.772-2.359-2.41-3.541-4.914-3.541c-1.254,0-2.579,0.313-3.976,0.939
		c-1.397,0.629-2.745,1.494-4.046,2.602c-1.301,1.109-2.529,2.385-3.686,3.83c-1.156,1.445-2.073,3.037-2.747,4.771
		c-1.445,3.374-1.783,6.24-1.011,8.601c0.771,2.362,2.408,3.541,4.915,3.541c1.251,0,2.576-0.311,3.975-0.939
		c1.396-0.626,2.747-1.494,4.048-2.602c1.3-1.106,2.479-2.408,3.541-3.902C457.529,162.356,458.444,160.791,459.217,159.151z"/>
	<path fill="#FFFFFF" d="M485.234,138.916c0.384-0.867,1.204-1.422,2.456-1.663c1.252-0.239,2.481-0.216,3.687,0.072
		c1.203,0.29,2.191,0.82,2.963,1.591c0.771,0.771,0.915,1.733,0.434,2.891l-0.867,1.733l0.578-0.434
		c2.696-2.312,5.009-3.853,6.938-4.624c1.926-0.771,3.589-1.061,4.986-0.867c1.396,0.193,2.552,0.771,3.47,1.734
		c0.914,0.963,1.661,2.073,2.239,3.324c0.867,1.928,0.892,4.072,0.073,6.432c-0.82,2.363-2.049,5.036-3.686,8.022
		c-1.063,2.12-2.169,4.12-3.325,5.999c-1.157,1.878-2.313,3.83-3.468,5.854c-0.58,1.062-0.846,1.759-0.796,2.096
		c0.047,0.34,0.288,0.459,0.722,0.361c0.434-0.094,0.939-0.312,1.52-0.65c0.577-0.336,1.105-0.697,1.589-1.084
		c2.119-1.637,4.214-3.516,6.287-5.637c2.072-2.119,3.733-3.998,4.988-5.637c0.577-0.868,1.371-1.324,2.385-1.374
		c1.012-0.047,1.926,0.145,2.745,0.578c0.817,0.434,1.422,1.036,1.807,1.808c0.384,0.771,0.29,1.589-0.288,2.457
		c-0.483,0.577-1.134,1.423-1.952,2.528c-0.819,1.108-1.759,2.291-2.817,3.542c-1.062,1.253-2.241,2.555-3.542,3.902
		c-1.302,1.35-2.626,2.602-3.975,3.759c-2.603,2.313-4.939,3.902-7.011,4.77c-2.073,0.868-3.902,1.276-5.493,1.228
		c-1.59-0.049-2.916-0.506-3.975-1.371c-1.062-0.868-1.879-1.928-2.457-3.181c-0.965-1.927-1.084-4.07-0.361-6.433
		c0.723-2.36,1.9-5.082,3.542-8.167c0.384-0.771,0.866-1.685,1.445-2.747c0.577-1.059,1.178-2.142,1.806-3.25
		c0.626-1.107,1.204-2.17,1.734-3.181c0.529-1.012,1.035-1.854,1.518-2.529c0.58-1.06,0.817-1.757,0.724-2.097
		c-0.097-0.337-0.411-0.456-0.939-0.361c-0.531,0.097-1.134,0.314-1.808,0.65c-0.675,0.339-1.301,0.7-1.879,1.084
		c-1.542,1.063-3.132,2.241-4.77,3.541c-1.64,1.301-3.132,2.627-4.48,3.976c-0.965,2.313-1.951,4.626-2.964,6.938
		c-1.012,2.313-1.951,4.481-2.819,6.505c-0.866,2.023-1.614,3.758-2.239,5.203c-0.628,1.445-1.085,2.457-1.373,3.035
		c-0.675,1.352-1.735,2.216-3.181,2.603c-1.445,0.384-2.818,0.362-4.118-0.071c-1.302-0.435-2.288-1.252-2.965-2.457
		c-0.672-1.205-0.577-2.723,0.29-4.555c0.867-1.926,2.048-4.456,3.541-7.588c1.495-3.131,3.036-6.408,4.625-9.83
		c1.59-3.418,3.131-6.768,4.626-10.045C482.896,144.023,484.172,141.228,485.234,138.916z"/>
	<path fill="#FFFFFF" d="M545.075,137.471c-1.35,1.928-2.747,3.638-4.192,5.13c-1.445,1.495-2.264,3.397-2.457,5.71
		c-0.193,1.156-0.024,2.481,0.506,3.976c0.529,1.495,1.061,3.132,1.591,4.914c0.528,1.784,0.866,3.711,1.012,5.781
		c0.145,2.073-0.218,4.313-1.085,6.722c1.061-0.578,1.975-1.203,2.747-1.88c2.216-1.636,3.902-3.202,5.06-4.696
		c1.155-1.494,2.359-3.059,3.612-4.697c0.579-0.868,1.373-1.324,2.385-1.374c1.014-0.047,1.928,0.145,2.747,0.578
		c0.817,0.434,1.42,1.036,1.807,1.808c0.384,0.771,0.29,1.589-0.289,2.457c-0.963,1.252-2.239,2.868-3.83,4.842
		c-1.59,1.976-3.735,4.17-6.432,6.576c-3.277,2.891-6.746,4.939-10.407,6.144c-3.663,1.206-6.987,1.855-9.974,1.951
		c-1.64,0.29-3.277,0.384-4.914,0.29c-1.641-0.098-3.158-0.434-4.554-1.014c-1.398-0.578-2.625-1.323-3.687-2.239
		c-1.059-0.915-1.879-1.999-2.457-3.253c-1.445-3.273-1.735-6.189-0.867-8.744c0.867-2.553,2.41-5.227,4.626-8.021
		c0.48-0.58,1.251-1.541,2.313-2.891c1.059-1.35,2.288-2.892,3.687-4.627c1.395-1.734,2.865-3.541,4.408-5.421
		c1.539-1.878,2.984-3.659,4.336-5.348c1.348-1.685,2.529-3.155,3.541-4.408c1.013-1.251,1.757-2.118,2.24-2.603
		c0.771-0.77,1.782-1.178,3.036-1.228c1.25-0.048,2.407,0.169,3.469,0.649c1.059,0.484,1.829,1.183,2.313,2.098
		C545.846,135.568,545.748,136.508,545.075,137.471z M527.297,173.895c1.156-0.771,1.998-1.901,2.529-3.396
		c0.527-1.492,0.795-3.107,0.795-4.842c0-1.735-0.193-3.492-0.579-5.275c-0.385-1.783-0.866-3.349-1.445-4.698
		c-2.698,3.181-4.722,5.565-6.069,7.155c-1.352,1.589-2.267,2.818-2.747,3.686c-0.578,0.867-0.724,1.879-0.434,3.035
		c0.29,1.157,0.843,2.169,1.661,3.035c0.819,0.867,1.782,1.47,2.893,1.807C525.006,174.74,526.14,174.569,527.297,173.895z"/>
	<path fill="#FFFFFF" d="M590.332,74.838v106.573h-6.353V74.838h-28.584v-6.352h63.521v6.352H590.332z"/>
	<path fill="#FFFFFF" d="M689.494,68.486v6.352h-50.11v46.935h50.11v6.352h-50.11v46.934h50.11v6.353h-56.463V68.486H689.494z"/>
	<path fill="#FFFFFF" d="M736.992,118.879c-8.045-2.682-14.397-6.352-19.056-11.01s-6.987-10.305-6.987-16.939
		c0-6.493,2.329-12.081,6.987-16.762s10.305-7.022,16.938-7.022c6.588,0,12.233,2.329,16.939,6.987
		c2.588,2.494,4.375,5.293,5.363,8.398l-5.717,2.259c-0.847-2.306-2.234-4.423-4.164-6.352c-3.435-3.388-7.575-5.082-12.422-5.082
		c-4.846,0-8.986,1.706-12.422,5.117c-3.435,3.412-5.151,7.564-5.151,12.457c0,4.846,1.717,8.987,5.151,12.422
		c3.2,3.152,7.623,6.046,13.27,8.681c9.033,2.917,16.633,7.458,22.796,13.622c6.54,6.494,9.811,14.351,9.811,23.573
		c0,9.27-3.271,17.174-9.811,23.714c-6.54,6.541-14.421,9.811-23.644,9.811c-9.222,0-17.104-3.293-23.644-9.881
		c-5.223-5.223-8.352-11.293-9.387-18.209l5.999-2.188c0.659,6.116,3.271,11.457,7.834,16.021
		c5.317,5.317,11.717,7.976,19.197,7.976c7.528,0,13.951-2.658,19.268-7.976c5.317-5.316,7.976-11.739,7.976-19.268
		c0-7.481-2.658-13.88-7.976-19.197C749.485,125.372,743.769,121.655,736.992,118.879z"/>
	<path fill="#FFFFFF" d="M810.323,74.838v106.573h-6.353V74.838h-28.584v-6.352h63.521v6.352H810.323z"/>
</g>
</svg>
