<?xml version="1.0" encoding="utf-8"?>
<!-- Generator: Adobe Illustrator 16.0.0, SVG Export Plug-In . SVG Version: 6.00 Build 0)  -->
<!DOCTYPE svg PUBLIC "-//W3C//DTD SVG 1.1//EN" "http://www.w3.org/Graphics/SVG/1.1/DTD/svg11.dtd">
<svg version="1.1" xmlns="http://www.w3.org/2000/svg" xmlns:xlink="http://www.w3.org/1999/xlink" x="0px" y="0px" width="500px"
	 height="500px" viewBox="0 0 500 500" enable-background="new 0 0 500 500" xml:space="preserve">
<g id="Ebene_1">
</g>
<g id="Ebene_1_Kopie">
</g>
<g id="Ebene_1_Kopie_Kopie">
	<g>
		
			<linearGradient id="SVGID_1_" gradientUnits="userSpaceOnUse" x1="-44.9951" y1="548.2158" x2="-44.9951" y2="548.2158" gradientTransform="matrix(52.1242 -26.5586 -26.5586 -52.1242 16963.5 27647.8125)">
			<stop  offset="0" style="stop-color:#D8D8D7"/>
			<stop  offset="1" style="stop-color:#636362"/>
		</linearGradient>
		<path fill="url(#SVGID_1_)" d="M58.344,267.572"/>
		<path fill="none" d="M40.467,167.386v43.463c0,0,0,21.636,21.638,21.636h43.462c0,0,21.638,0,21.638-21.636v-43.463"/>
		<path fill="none" stroke="#B8B8B7" stroke-width="0.25" d="M40.467,167.385v43.464c0,0,0,21.636,21.638,21.636h43.462
			c0,0,21.638,0,21.638-21.636v-43.464"/>
		
			<linearGradient id="SVGID_2_" gradientUnits="userSpaceOnUse" x1="-44.1372" y1="547.7783" x2="-44.1372" y2="547.7783" gradientTransform="matrix(52.1242 -26.5586 -26.5586 -52.1242 17019.4844 27647.8125)">
			<stop  offset="0" style="stop-color:#D8D8D7"/>
			<stop  offset="1" style="stop-color:#636362"/>
		</linearGradient>
		<path fill="url(#SVGID_2_)" d="M170.641,267.569"/>
		<path fill="none" d="M152.763,167.386v43.463c0,0,0,21.636,21.639,21.636h43.462c0,0,21.636,0,21.636-21.636v-43.463"/>
		<path fill="none" stroke="#B8B8B7" stroke-width="0.25" d="M152.763,167.385v43.464c0,0,0,21.636,21.639,21.636h43.462
			c0,0,21.638,0,21.638-21.636v-43.464"/>
		
			<linearGradient id="SVGID_3_" gradientUnits="userSpaceOnUse" x1="-42.4219" y1="546.9053" x2="-42.4219" y2="546.9053" gradientTransform="matrix(52.1242 -26.5586 -26.5586 -52.1242 17131.4531 27647.8125)">
			<stop  offset="0" style="stop-color:#D8D8D7"/>
			<stop  offset="1" style="stop-color:#636362"/>
		</linearGradient>
		<path fill="url(#SVGID_3_)" d="M395.23,267.572"/>
		<path fill="none" d="M377.353,167.386v43.463c0,0,0,21.636,21.638,21.636h43.465c0,0,21.636,0,21.636-21.636v-43.463"/>
		<path fill="none" stroke="#B8B8B7" stroke-width="0.25" d="M377.353,167.385v43.464c0,0,0,21.636,21.638,21.636h43.465
			c0,0,21.636,0,21.636-21.636v-43.464"/>
		
			<linearGradient id="SVGID_4_" gradientUnits="userSpaceOnUse" x1="-43.2798" y1="547.3408" x2="-43.2798" y2="547.3408" gradientTransform="matrix(52.1242 -26.5586 -26.5586 -52.1242 17075.4688 27647.8125)">
			<stop  offset="0" style="stop-color:#D8D8D7"/>
			<stop  offset="1" style="stop-color:#636362"/>
		</linearGradient>
		<path fill="url(#SVGID_4_)" d="M282.934,267.572"/>
		<path fill="none" d="M265.059,167.386v43.463c0,0,0,21.636,21.637,21.636h43.463c0,0,21.638,0,21.638-21.636v-43.463"/>
		<path fill="none" stroke="#B8B8B7" stroke-width="0.25" d="M265.059,167.385v43.464c0,0,0,21.636,21.637,21.636h43.463
			c0,0,21.638,0,21.638-21.636v-43.464"/>
		<g>
			<defs>
				<path id="SVGID_5_" d="M62.105,264.873c0,0-21.638,0-21.638,21.638v43.462c0,0,0,21.639,21.638,21.639h43.462
					c0,0,21.638,0,21.638-21.639v-43.462c0,0,0-21.638-21.638-21.638H62.105z"/>
			</defs>
			<clipPath id="SVGID_6_">
				<use xlink:href="#SVGID_5_"  overflow="visible"/>
			</clipPath>
			
				<linearGradient id="SVGID_7_" gradientUnits="userSpaceOnUse" x1="-45.4663" y1="548.3027" x2="-43.4614" y2="548.3027" gradientTransform="matrix(52.1242 -26.5586 -26.5586 -52.1242 16963.5 27707.1875)">
				<stop  offset="0" style="stop-color:#D8D8D7"/>
				<stop  offset="1" style="stop-color:#636362"/>
			</linearGradient>
			<polygon clip-path="url(#SVGID_6_)" fill="url(#SVGID_7_)" points="5.38,282.751 109.328,229.785 162.292,333.733 
				58.344,386.699 			"/>
		</g>
		<path fill="none" stroke="#B8B8B7" stroke-width="0.25" d="M62.105,264.873c0,0-21.638,0-21.638,21.638v43.462
			c0,0,0,21.639,21.638,21.639h43.462c0,0,21.638,0,21.638-21.639v-43.462c0,0,0-21.638-21.638-21.638H62.105z"/>
		<g>
			<defs>
				<path id="SVGID_8_" d="M174.401,264.873c0,0-21.639,0-21.639,21.638v43.462c0,0,0,21.639,21.639,21.639h43.462
					c0,0,21.636,0,21.636-21.639v-43.462c0,0,0-21.638-21.636-21.638H174.401z"/>
			</defs>
			<clipPath id="SVGID_9_">
				<use xlink:href="#SVGID_8_"  overflow="visible"/>
			</clipPath>
			
				<linearGradient id="SVGID_10_" gradientUnits="userSpaceOnUse" x1="-44.6094" y1="547.8662" x2="-42.6035" y2="547.8662" gradientTransform="matrix(52.1242 -26.5586 -26.5586 -52.1242 17019.4844 27707.1875)">
				<stop  offset="0" style="stop-color:#D8D8D7"/>
				<stop  offset="1" style="stop-color:#636362"/>
			</linearGradient>
			<polygon clip-path="url(#SVGID_9_)" fill="url(#SVGID_10_)" points="117.676,282.751 221.622,229.789 274.587,333.733 
				170.641,386.699 			"/>
		</g>
		<path fill="none" stroke="#B8B8B7" stroke-width="0.25" d="M174.401,264.873c0,0-21.639,0-21.639,21.638v43.462
			c0,0,0,21.639,21.639,21.639h43.462c0,0,21.638,0,21.638-21.639v-43.462c0,0,0-21.638-21.638-21.638H174.401z"/>
		<g>
			<defs>
				<path id="SVGID_11_" d="M398.99,264.873c0,0-21.638,0-21.638,21.638v43.462c0,0,0,21.639,21.638,21.639h43.465
					c0,0,21.636,0,21.636-21.639v-43.462c0,0,0-21.638-21.636-21.638H398.99z"/>
			</defs>
			<clipPath id="SVGID_12_">
				<use xlink:href="#SVGID_11_"  overflow="visible"/>
			</clipPath>
			
				<linearGradient id="SVGID_13_" gradientUnits="userSpaceOnUse" x1="-42.8931" y1="546.9922" x2="-40.8877" y2="546.9922" gradientTransform="matrix(52.1242 -26.5586 -26.5586 -52.1242 17131.4531 27707.1875)">
				<stop  offset="0" style="stop-color:#D8D8D7"/>
				<stop  offset="1" style="stop-color:#636362"/>
			</linearGradient>
			<polygon clip-path="url(#SVGID_12_)" fill="url(#SVGID_13_)" points="342.268,282.751 446.215,229.785 499.178,333.733 
				395.23,386.699 			"/>
		</g>
		<path fill="none" stroke="#B8B8B7" stroke-width="0.25" d="M398.99,264.873c0,0-21.638,0-21.638,21.638v43.462
			c0,0,0,21.639,21.638,21.639h43.465c0,0,21.636,0,21.636-21.639v-43.462c0,0,0-21.638-21.636-21.638H398.99z"/>
		<g>
			<defs>
				<path id="SVGID_14_" d="M286.695,264.873c0,0-21.637,0-21.637,21.638v43.462c0,0,0,21.639,21.637,21.639h43.463
					c0,0,21.638,0,21.638-21.639v-43.462c0,0,0-21.638-21.638-21.638H286.695z"/>
			</defs>
			<clipPath id="SVGID_15_">
				<use xlink:href="#SVGID_14_"  overflow="visible"/>
			</clipPath>
			
				<linearGradient id="SVGID_16_" gradientUnits="userSpaceOnUse" x1="-43.751" y1="547.4277" x2="-41.7446" y2="547.4277" gradientTransform="matrix(52.1242 -26.5586 -26.5586 -52.1242 17075.4688 27707.1875)">
				<stop  offset="0" style="stop-color:#D8D8D7"/>
				<stop  offset="1" style="stop-color:#636362"/>
			</linearGradient>
			<polygon clip-path="url(#SVGID_15_)" fill="url(#SVGID_16_)" points="229.973,282.751 333.919,229.785 386.882,333.733 
				282.934,386.699 			"/>
		</g>
		<path fill="none" stroke="#B8B8B7" stroke-width="0.25" d="M286.695,264.873c0,0-21.637,0-21.637,21.638v43.462
			c0,0,0,21.639,21.637,21.639h43.463c0,0,21.638,0,21.638-21.639v-43.462c0,0,0-21.638-21.638-21.638H286.695z"/>
		<g>
			<defs>
				<path id="SVGID_17_" d="M62.105,384.233c0,0-21.638,0-21.638,21.639v43.462c0,0,0,21.638,21.638,21.638h43.462
					c0,0,21.638,0,21.638-21.638v-43.462c0,0,0-21.639-21.638-21.639H62.105z"/>
			</defs>
			<clipPath id="SVGID_18_">
				<use xlink:href="#SVGID_17_"  overflow="visible"/>
			</clipPath>
			
				<linearGradient id="SVGID_19_" gradientUnits="userSpaceOnUse" x1="-45.9307" y1="547.3906" x2="-43.9258" y2="547.3906" gradientTransform="matrix(52.1242 -26.5586 -26.5586 -52.1242 16963.5 27766.6875)">
				<stop  offset="0" style="stop-color:#D8D8D7"/>
				<stop  offset="1" style="stop-color:#636362"/>
			</linearGradient>
			<polygon clip-path="url(#SVGID_18_)" fill="url(#SVGID_19_)" points="5.38,402.112 109.328,349.148 162.292,453.094 
				58.344,506.059 			"/>
		</g>
		<path fill="none" stroke="#B8B8B7" stroke-width="0.25" d="M62.105,384.236c0,0-21.638,0-21.638,21.637v43.464
			c0,0,0,21.635,21.638,21.635h43.462c0,0,21.638,0,21.638-21.635v-43.464c0,0,0-21.637-21.638-21.637H62.105z"/>
		<g>
			<defs>
				<path id="SVGID_20_" d="M174.401,384.233c0,0-21.639,0-21.639,21.639v43.462c0,0,0,21.638,21.639,21.638h43.462
					c0,0,21.636,0,21.636-21.638v-43.462c0,0,0-21.639-21.636-21.639H174.401z"/>
			</defs>
			<clipPath id="SVGID_21_">
				<use xlink:href="#SVGID_20_"  overflow="visible"/>
			</clipPath>
			
				<linearGradient id="SVGID_22_" gradientUnits="userSpaceOnUse" x1="-45.0737" y1="546.9541" x2="-43.0678" y2="546.9541" gradientTransform="matrix(52.1242 -26.5586 -26.5586 -52.1242 17019.4844 27766.6875)">
				<stop  offset="0" style="stop-color:#D8D8D7"/>
				<stop  offset="1" style="stop-color:#636362"/>
			</linearGradient>
			<polygon clip-path="url(#SVGID_21_)" fill="url(#SVGID_22_)" points="117.676,402.112 221.622,349.148 274.587,453.094 
				170.641,506.059 			"/>
		</g>
		<path fill="none" stroke="#B8B8B7" stroke-width="0.25" d="M174.401,384.236c0,0-21.639,0-21.639,21.637v43.464
			c0,0,0,21.635,21.639,21.635h43.462c0,0,21.638,0,21.638-21.635v-43.464c0,0,0-21.637-21.638-21.637H174.401z"/>
		<g>
			<defs>
				<path id="SVGID_23_" d="M398.99,384.233c0,0-21.638,0-21.638,21.639v43.462c0,0,0,21.638,21.638,21.638h43.465
					c0,0,21.636,0,21.636-21.638v-43.462c0,0,0-21.639-21.636-21.639H398.99z"/>
			</defs>
			<clipPath id="SVGID_24_">
				<use xlink:href="#SVGID_23_"  overflow="visible"/>
			</clipPath>
			
				<linearGradient id="SVGID_25_" gradientUnits="userSpaceOnUse" x1="-43.3584" y1="546.0801" x2="-41.3525" y2="546.0801" gradientTransform="matrix(52.1242 -26.5586 -26.5586 -52.1242 17131.4531 27766.6875)">
				<stop  offset="0" style="stop-color:#D8D8D7"/>
				<stop  offset="1" style="stop-color:#636362"/>
			</linearGradient>
			<polygon clip-path="url(#SVGID_24_)" fill="url(#SVGID_25_)" points="342.268,402.112 446.215,349.148 499.178,453.094 
				395.23,506.059 			"/>
		</g>
		<path fill="none" stroke="#B8B8B7" stroke-width="0.25" d="M398.99,384.236c0,0-21.638,0-21.638,21.637v43.464
			c0,0,0,21.635,21.638,21.635h43.465c0,0,21.636,0,21.636-21.635v-43.464c0,0,0-21.637-21.636-21.637H398.99z"/>
		<g>
			<defs>
				<path id="SVGID_26_" d="M286.695,384.233c0,0-21.637,0-21.637,21.639v43.462c0,0,0,21.638,21.637,21.638h43.463
					c0,0,21.638,0,21.638-21.638v-43.462c0,0,0-21.639-21.638-21.639H286.695z"/>
			</defs>
			<clipPath id="SVGID_27_">
				<use xlink:href="#SVGID_26_"  overflow="visible"/>
			</clipPath>
			
				<linearGradient id="SVGID_28_" gradientUnits="userSpaceOnUse" x1="-44.2153" y1="546.5166" x2="-42.209" y2="546.5166" gradientTransform="matrix(52.1242 -26.5586 -26.5586 -52.1242 17075.4688 27766.6875)">
				<stop  offset="0" style="stop-color:#D8D8D7"/>
				<stop  offset="1" style="stop-color:#636362"/>
			</linearGradient>
			<polygon clip-path="url(#SVGID_27_)" fill="url(#SVGID_28_)" points="229.973,402.112 333.919,349.148 386.882,453.094 
				282.934,506.059 			"/>
		</g>
		<path fill="none" stroke="#B8B8B7" stroke-width="0.25" d="M286.695,384.236c0,0-21.637,0-21.637,21.637v43.464
			c0,0,0,21.635,21.637,21.635h43.463c0,0,21.638,0,21.638-21.635v-43.464c0,0,0-21.637-21.638-21.637H286.695z"/>
		<path fill="none" d="M40.467,49.048v43.463c0,0,0,21.636,21.638,21.636h43.462c0,0,21.638,0,21.638-21.636V49.048"/>
		<path fill="none" stroke="#B8B8B7" stroke-width="0.25" d="M40.467,49.046v43.464c0,0,0,21.636,21.638,21.636h43.462
			c0,0,21.638,0,21.638-21.636V49.046"/>
		<path fill="none" d="M152.763,49.048v43.463c0,0,0,21.636,21.639,21.636h43.462c0,0,21.636,0,21.636-21.636V49.048"/>
		<path fill="none" stroke="#B8B8B7" stroke-width="0.25" d="M152.763,49.046v43.464c0,0,0,21.636,21.639,21.636h43.462
			c0,0,21.638,0,21.638-21.636V49.046"/>
		
			<linearGradient id="SVGID_29_" gradientUnits="userSpaceOnUse" x1="-41.5039" y1="548.707" x2="-41.5039" y2="548.707" gradientTransform="matrix(52.1242 -26.5586 -26.5586 -52.1242 17131.4531 27647.8125)">
			<stop  offset="0" style="stop-color:#D8D8D7"/>
			<stop  offset="1" style="stop-color:#636362"/>
		</linearGradient>
		<path fill="url(#SVGID_29_)" d="M395.23,149.233"/>
		<path fill="none" d="M377.353,49.048v43.463c0,0,0,21.636,21.638,21.636h43.465c0,0,21.636,0,21.636-21.636V49.048"/>
		<path fill="none" stroke="#B8B8B7" stroke-width="0.25" d="M377.353,49.046v43.464c0,0,0,21.636,21.638,21.636h43.465
			c0,0,21.636,0,21.636-21.636V49.046"/>
		<g>
			<defs>
				<path id="SVGID_30_" d="M62.105,146.534c0,0-21.638,0-21.638,21.638v43.462c0,0,0,21.639,21.638,21.639h43.462
					c0,0,21.638,0,21.638-21.639v-43.462c0,0,0-21.638-21.638-21.638H62.105z"/>
			</defs>
			<clipPath id="SVGID_31_">
				<use xlink:href="#SVGID_30_"  overflow="visible"/>
			</clipPath>
			
				<linearGradient id="SVGID_32_" gradientUnits="userSpaceOnUse" x1="-44.5479" y1="550.1055" x2="-42.5429" y2="550.1055" gradientTransform="matrix(52.1242 -26.5586 -26.5586 -52.1242 16963.5 27707.1875)">
				<stop  offset="0" style="stop-color:#D8D8D7"/>
				<stop  offset="1" style="stop-color:#636362"/>
			</linearGradient>
			<polygon clip-path="url(#SVGID_31_)" fill="url(#SVGID_32_)" points="5.38,164.411 109.328,111.447 162.292,215.395 
				58.344,268.358 			"/>
		</g>
		<path fill="none" stroke="#B8B8B7" stroke-width="0.25" d="M62.105,146.534c0,0-21.638,0-21.638,21.638v43.462
			c0,0,0,21.639,21.638,21.639h43.462c0,0,21.638,0,21.638-21.639v-43.462c0,0,0-21.638-21.638-21.638H62.105z"/>
		<g>
			<defs>
				<path id="SVGID_33_" d="M174.401,146.534c0,0-21.639,0-21.639,21.638v43.462c0,0,0,21.639,21.639,21.639h43.462
					c0,0,21.636,0,21.636-21.639v-43.462c0,0,0-21.638-21.636-21.638H174.401z"/>
			</defs>
			<clipPath id="SVGID_34_">
				<use xlink:href="#SVGID_33_"  overflow="visible"/>
			</clipPath>
			
				<linearGradient id="SVGID_35_" gradientUnits="userSpaceOnUse" x1="-43.6909" y1="549.668" x2="-41.685" y2="549.668" gradientTransform="matrix(52.1242 -26.5586 -26.5586 -52.1242 17019.4844 27707.1875)">
				<stop  offset="0" style="stop-color:#D8D8D7"/>
				<stop  offset="1" style="stop-color:#636362"/>
			</linearGradient>
			<polygon clip-path="url(#SVGID_34_)" fill="url(#SVGID_35_)" points="117.676,164.411 221.622,111.449 274.587,215.395 
				170.641,268.358 			"/>
		</g>
		<path fill="none" stroke="#B8B8B7" stroke-width="0.25" d="M174.401,146.534c0,0-21.639,0-21.639,21.638v43.462
			c0,0,0,21.639,21.639,21.639h43.462c0,0,21.638,0,21.638-21.639v-43.462c0,0,0-21.638-21.638-21.638H174.401z"/>
		<g>
			<defs>
				<path id="SVGID_36_" d="M398.99,146.534c0,0-21.638,0-21.638,21.638v43.462c0,0,0,21.639,21.638,21.639h43.465
					c0,0,21.636,0,21.636-21.639v-43.462c0,0,0-21.638-21.636-21.638H398.99z"/>
			</defs>
			<clipPath id="SVGID_37_">
				<use xlink:href="#SVGID_36_"  overflow="visible"/>
			</clipPath>
			
				<linearGradient id="SVGID_38_" gradientUnits="userSpaceOnUse" x1="-41.9746" y1="548.7939" x2="-39.9697" y2="548.7939" gradientTransform="matrix(52.1242 -26.5586 -26.5586 -52.1242 17131.4531 27707.1875)">
				<stop  offset="0" style="stop-color:#D8D8D7"/>
				<stop  offset="1" style="stop-color:#636362"/>
			</linearGradient>
			<polygon clip-path="url(#SVGID_37_)" fill="url(#SVGID_38_)" points="342.268,164.411 446.215,111.447 499.178,215.395 
				395.23,268.358 			"/>
		</g>
		<path fill="none" stroke="#B8B8B7" stroke-width="0.25" d="M398.99,146.534c0,0-21.638,0-21.638,21.638v43.462
			c0,0,0,21.639,21.638,21.639h43.465c0,0,21.636,0,21.636-21.639v-43.462c0,0,0-21.638-21.636-21.638H398.99z"/>
		<g>
			<defs>
				<path id="SVGID_39_" d="M286.695,146.534c0,0-21.637,0-21.637,21.638v43.462c0,0,0,21.639,21.637,21.639h43.463
					c0,0,21.638,0,21.638-21.639v-43.462c0,0,0-21.638-21.638-21.638H286.695z"/>
			</defs>
			<clipPath id="SVGID_40_">
				<use xlink:href="#SVGID_39_"  overflow="visible"/>
			</clipPath>
			
				<linearGradient id="SVGID_41_" gradientUnits="userSpaceOnUse" x1="-42.8325" y1="549.2305" x2="-40.8261" y2="549.2305" gradientTransform="matrix(52.1242 -26.5586 -26.5586 -52.1242 17075.4688 27707.1875)">
				<stop  offset="0" style="stop-color:#D8D8D7"/>
				<stop  offset="1" style="stop-color:#636362"/>
			</linearGradient>
			<polygon clip-path="url(#SVGID_40_)" fill="url(#SVGID_41_)" points="229.973,164.411 333.919,111.447 386.882,215.395 
				282.934,268.358 			"/>
		</g>
		<path fill="none" stroke="#B8B8B7" stroke-width="0.25" d="M286.695,146.534c0,0-21.637,0-21.637,21.638v43.462
			c0,0,0,21.639,21.637,21.639h43.463c0,0,21.638,0,21.638-21.639v-43.462c0,0,0-21.638-21.638-21.638H286.695z"/>
		<g>
			<defs>
				<path id="SVGID_42_" d="M62.105,265.895c0,0-21.638,0-21.638,21.64v43.461c0,0,0,21.639,21.638,21.639h43.462
					c0,0,21.638,0,21.638-21.639v-43.461c0,0,0-21.64-21.638-21.64H62.105z"/>
			</defs>
			<clipPath id="SVGID_43_">
				<use xlink:href="#SVGID_42_"  overflow="visible"/>
			</clipPath>
			
				<linearGradient id="SVGID_44_" gradientUnits="userSpaceOnUse" x1="-45.0122" y1="549.1934" x2="-43.0073" y2="549.1934" gradientTransform="matrix(52.1242 -26.5586 -26.5586 -52.1242 16963.5 27766.6875)">
				<stop  offset="0" style="stop-color:#D8D8D7"/>
				<stop  offset="1" style="stop-color:#636362"/>
			</linearGradient>
			<polygon clip-path="url(#SVGID_43_)" fill="url(#SVGID_44_)" points="5.38,283.774 109.328,230.81 162.292,334.756 
				58.344,387.719 			"/>
		</g>
		<path fill="none" stroke="#B8B8B7" stroke-width="0.25" d="M62.105,265.897c0,0-21.638,0-21.638,21.638v43.462
			c0,0,0,21.637,21.638,21.637h43.462c0,0,21.638,0,21.638-21.637v-43.462c0,0,0-21.638-21.638-21.638H62.105z"/>
		<g>
			<defs>
				<path id="SVGID_45_" d="M174.401,265.895c0,0-21.639,0-21.639,21.64v43.461c0,0,0,21.639,21.639,21.639h43.462
					c0,0,21.636,0,21.636-21.639v-43.461c0,0,0-21.64-21.636-21.64H174.401z"/>
			</defs>
			<clipPath id="SVGID_46_">
				<use xlink:href="#SVGID_45_"  overflow="visible"/>
			</clipPath>
			
				<linearGradient id="SVGID_47_" gradientUnits="userSpaceOnUse" x1="-44.1553" y1="548.7568" x2="-42.1494" y2="548.7568" gradientTransform="matrix(52.1242 -26.5586 -26.5586 -52.1242 17019.4844 27766.6875)">
				<stop  offset="0" style="stop-color:#D8D8D7"/>
				<stop  offset="1" style="stop-color:#636362"/>
			</linearGradient>
			<polygon clip-path="url(#SVGID_46_)" fill="url(#SVGID_47_)" points="117.676,283.774 221.622,230.81 274.587,334.756 
				170.641,387.719 			"/>
		</g>
		<path fill="none" stroke="#B8B8B7" stroke-width="0.25" d="M174.401,265.897c0,0-21.639,0-21.639,21.638v43.462
			c0,0,0,21.637,21.639,21.637h43.462c0,0,21.638,0,21.638-21.637v-43.462c0,0,0-21.638-21.638-21.638H174.401z"/>
		<g>
			<defs>
				<path id="SVGID_48_" d="M398.99,265.895c0,0-21.638,0-21.638,21.64v43.461c0,0,0,21.639,21.638,21.639h43.465
					c0,0,21.636,0,21.636-21.639v-43.461c0,0,0-21.64-21.636-21.64H398.99z"/>
			</defs>
			<clipPath id="SVGID_49_">
				<use xlink:href="#SVGID_48_"  overflow="visible"/>
			</clipPath>
			
				<linearGradient id="SVGID_50_" gradientUnits="userSpaceOnUse" x1="-42.4399" y1="547.8828" x2="-40.4341" y2="547.8828" gradientTransform="matrix(52.1242 -26.5586 -26.5586 -52.1242 17131.4531 27766.6875)">
				<stop  offset="0" style="stop-color:#D8D8D7"/>
				<stop  offset="1" style="stop-color:#636362"/>
			</linearGradient>
			<polygon clip-path="url(#SVGID_49_)" fill="url(#SVGID_50_)" points="342.268,283.774 446.215,230.81 499.178,334.756 
				395.23,387.719 			"/>
		</g>
		<path fill="none" stroke="#B8B8B7" stroke-width="0.25" d="M398.99,265.897c0,0-21.638,0-21.638,21.638v43.462
			c0,0,0,21.637,21.638,21.637h43.465c0,0,21.636,0,21.636-21.637v-43.462c0,0,0-21.638-21.636-21.638H398.99z"/>
		<g>
			<defs>
				<path id="SVGID_51_" d="M286.695,265.895c0,0-21.637,0-21.637,21.64v43.461c0,0,0,21.639,21.637,21.639h43.463
					c0,0,21.638,0,21.638-21.639v-43.461c0,0,0-21.64-21.638-21.64H286.695z"/>
			</defs>
			<clipPath id="SVGID_52_">
				<use xlink:href="#SVGID_51_"  overflow="visible"/>
			</clipPath>
			
				<linearGradient id="SVGID_53_" gradientUnits="userSpaceOnUse" x1="-43.2969" y1="548.3184" x2="-41.291" y2="548.3184" gradientTransform="matrix(52.1242 -26.5586 -26.5586 -52.1242 17075.4688 27766.6875)">
				<stop  offset="0" style="stop-color:#D8D8D7"/>
				<stop  offset="1" style="stop-color:#636362"/>
			</linearGradient>
			<polygon clip-path="url(#SVGID_52_)" fill="url(#SVGID_53_)" points="229.973,283.774 333.919,230.81 386.882,334.756 
				282.934,387.719 			"/>
		</g>
		<path fill="none" stroke="#B8B8B7" stroke-width="0.25" d="M286.695,265.897c0,0-21.637,0-21.637,21.638v43.462
			c0,0,0,21.637,21.637,21.637h43.463c0,0,21.638,0,21.638-21.637v-43.462c0,0,0-21.638-21.638-21.638H286.695z"/>
		<g>
			<defs>
				<path id="SVGID_54_" d="M62.105,26.19c0,0-21.638,0-21.638,21.638V91.29c0,0,0,21.639,21.638,21.639h43.462
					c0,0,21.638,0,21.638-21.639V47.828c0,0,0-21.638-21.638-21.638H62.105z"/>
			</defs>
			<clipPath id="SVGID_55_">
				<use xlink:href="#SVGID_54_"  overflow="visible"/>
			</clipPath>
			
				<linearGradient id="SVGID_56_" gradientUnits="userSpaceOnUse" x1="-43.6143" y1="551.9375" x2="-41.6089" y2="551.9375" gradientTransform="matrix(52.1242 -26.5586 -26.5586 -52.1242 16963.5 27707.1875)">
				<stop  offset="0" style="stop-color:#D8D8D7"/>
				<stop  offset="1" style="stop-color:#636362"/>
			</linearGradient>
			<polygon clip-path="url(#SVGID_55_)" fill="url(#SVGID_56_)" points="5.38,44.067 109.328,-8.897 162.292,95.051 58.344,148.015 
							"/>
		</g>
		<path fill="none" stroke="#B8B8B7" stroke-width="0.25" d="M62.105,26.19c0,0-21.638,0-21.638,21.638V91.29
			c0,0,0,21.639,21.638,21.639h43.462c0,0,21.638,0,21.638-21.639V47.828c0,0,0-21.638-21.638-21.638H62.105z"/>
		<g>
			<defs>
				<path id="SVGID_57_" d="M174.401,26.19c0,0-21.639,0-21.639,21.638V91.29c0,0,0,21.639,21.639,21.639h43.462
					c0,0,21.636,0,21.636-21.639V47.828c0,0,0-21.638-21.636-21.638H174.401z"/>
			</defs>
			<clipPath id="SVGID_58_">
				<use xlink:href="#SVGID_57_"  overflow="visible"/>
			</clipPath>
			
				<linearGradient id="SVGID_59_" gradientUnits="userSpaceOnUse" x1="-42.7573" y1="551.501" x2="-40.7514" y2="551.501" gradientTransform="matrix(52.1242 -26.5586 -26.5586 -52.1242 17019.4844 27707.1875)">
				<stop  offset="0" style="stop-color:#D8D8D7"/>
				<stop  offset="1" style="stop-color:#636362"/>
			</linearGradient>
			<polygon clip-path="url(#SVGID_58_)" fill="url(#SVGID_59_)" points="117.676,44.067 221.622,-8.895 274.587,95.051 
				170.641,148.015 			"/>
		</g>
		<path fill="none" stroke="#B8B8B7" stroke-width="0.25" d="M174.401,26.19c0,0-21.639,0-21.639,21.638V91.29
			c0,0,0,21.639,21.639,21.639h43.462c0,0,21.638,0,21.638-21.639V47.828c0,0,0-21.638-21.638-21.638H174.401z"/>
		<g>
			<defs>
				<path id="SVGID_60_" d="M398.99,26.19c0,0-21.638,0-21.638,21.638V91.29c0,0,0,21.639,21.638,21.639h43.465
					c0,0,21.636,0,21.636-21.639V47.828c0,0,0-21.638-21.636-21.638H398.99z"/>
			</defs>
			<clipPath id="SVGID_61_">
				<use xlink:href="#SVGID_60_"  overflow="visible"/>
			</clipPath>
			
				<linearGradient id="SVGID_62_" gradientUnits="userSpaceOnUse" x1="-41.0405" y1="550.627" x2="-39.0356" y2="550.627" gradientTransform="matrix(52.1242 -26.5586 -26.5586 -52.1242 17131.4531 27707.1875)">
				<stop  offset="0" style="stop-color:#D8D8D7"/>
				<stop  offset="1" style="stop-color:#636362"/>
			</linearGradient>
			<polygon clip-path="url(#SVGID_61_)" fill="url(#SVGID_62_)" points="342.268,44.067 446.215,-8.897 499.178,95.051 
				395.23,148.015 			"/>
		</g>
		<path fill="none" stroke="#B8B8B7" stroke-width="0.25" d="M398.99,26.19c0,0-21.638,0-21.638,21.638V91.29
			c0,0,0,21.639,21.638,21.639h43.465c0,0,21.636,0,21.636-21.639V47.828c0,0,0-21.638-21.636-21.638H398.99z"/>
		<g>
			<defs>
				<path id="SVGID_63_" d="M62.105,145.551c0,0-21.638,0-21.638,21.638v43.461c0,0,0,21.638,21.638,21.638h43.462
					c0,0,21.638,0,21.638-21.638v-43.461c0,0,0-21.638-21.638-21.638H62.105z"/>
			</defs>
			<clipPath id="SVGID_64_">
				<use xlink:href="#SVGID_63_"  overflow="visible"/>
			</clipPath>
			
				<linearGradient id="SVGID_65_" gradientUnits="userSpaceOnUse" x1="-44.0786" y1="551.0264" x2="-42.0732" y2="551.0264" gradientTransform="matrix(52.1242 -26.5586 -26.5586 -52.1242 16963.5 27766.6875)">
				<stop  offset="0" style="stop-color:#D8D8D7"/>
				<stop  offset="1" style="stop-color:#636362"/>
			</linearGradient>
			<polygon clip-path="url(#SVGID_64_)" fill="url(#SVGID_65_)" points="5.38,163.43 109.328,110.466 162.292,214.412 
				58.344,267.377 			"/>
		</g>
		<path fill="none" stroke="#B8B8B7" stroke-width="0.25" d="M62.105,145.553c0,0-21.638,0-21.638,21.638v43.462
			c0,0,0,21.636,21.638,21.636h43.462c0,0,21.638,0,21.638-21.636V167.19c0,0,0-21.638-21.638-21.638H62.105z"/>
		<g>
			<defs>
				<path id="SVGID_66_" d="M174.401,145.551c0,0-21.639,0-21.639,21.638v43.461c0,0,0,21.638,21.639,21.638h43.462
					c0,0,21.636,0,21.636-21.638v-43.461c0,0,0-21.638-21.636-21.638H174.401z"/>
			</defs>
			<clipPath id="SVGID_67_">
				<use xlink:href="#SVGID_66_"  overflow="visible"/>
			</clipPath>
			
				<linearGradient id="SVGID_68_" gradientUnits="userSpaceOnUse" x1="-43.2217" y1="550.5898" x2="-41.2158" y2="550.5898" gradientTransform="matrix(52.1242 -26.5586 -26.5586 -52.1242 17019.4844 27766.6875)">
				<stop  offset="0" style="stop-color:#D8D8D7"/>
				<stop  offset="1" style="stop-color:#636362"/>
			</linearGradient>
			<polygon clip-path="url(#SVGID_67_)" fill="url(#SVGID_68_)" points="117.676,163.43 221.622,110.466 274.587,214.412 
				170.641,267.377 			"/>
		</g>
		<path fill="none" stroke="#B8B8B7" stroke-width="0.25" d="M174.401,145.553c0,0-21.639,0-21.639,21.638v43.462
			c0,0,0,21.636,21.639,21.636h43.462c0,0,21.638,0,21.638-21.636V167.19c0,0,0-21.638-21.638-21.638H174.401z"/>
		<g>
			<defs>
				<path id="SVGID_69_" d="M398.99,145.551c0,0-21.638,0-21.638,21.638v43.461c0,0,0,21.638,21.638,21.638h43.465
					c0,0,21.636,0,21.636-21.638v-43.461c0,0,0-21.638-21.636-21.638H398.99z"/>
			</defs>
			<clipPath id="SVGID_70_">
				<use xlink:href="#SVGID_69_"  overflow="visible"/>
			</clipPath>
			
				<linearGradient id="SVGID_71_" gradientUnits="userSpaceOnUse" x1="-41.5059" y1="549.7158" x2="-39.5" y2="549.7158" gradientTransform="matrix(52.1242 -26.5586 -26.5586 -52.1242 17131.4531 27766.6875)">
				<stop  offset="0" style="stop-color:#D8D8D7"/>
				<stop  offset="1" style="stop-color:#636362"/>
			</linearGradient>
			<polygon clip-path="url(#SVGID_70_)" fill="url(#SVGID_71_)" points="342.268,163.43 446.215,110.466 499.178,214.412 
				395.23,267.377 			"/>
		</g>
		<path fill="none" stroke="#B8B8B7" stroke-width="0.25" d="M398.99,145.553c0,0-21.638,0-21.638,21.638v43.462
			c0,0,0,21.636,21.638,21.636h43.465c0,0,21.636,0,21.636-21.636V167.19c0,0,0-21.638-21.636-21.638H398.99z"/>
		<g>
			<defs>
				<path id="SVGID_72_" d="M286.695,145.551c0,0-21.637,0-21.637,21.638v43.461c0,0,0,21.638,21.637,21.638h43.463
					c0,0,21.638,0,21.638-21.638v-43.461c0,0,0-21.638-21.638-21.638H286.695z"/>
			</defs>
			<clipPath id="SVGID_73_">
				<use xlink:href="#SVGID_72_"  overflow="visible"/>
			</clipPath>
			
				<linearGradient id="SVGID_74_" gradientUnits="userSpaceOnUse" x1="-42.3628" y1="550.1514" x2="-40.3569" y2="550.1514" gradientTransform="matrix(52.1242 -26.5586 -26.5586 -52.1242 17075.4688 27766.6875)">
				<stop  offset="0" style="stop-color:#D8D8D7"/>
				<stop  offset="1" style="stop-color:#636362"/>
			</linearGradient>
			<polygon clip-path="url(#SVGID_73_)" fill="url(#SVGID_74_)" points="229.973,163.43 333.919,110.466 386.882,214.412 
				282.934,267.377 			"/>
		</g>
		<path fill="none" stroke="#B8B8B7" stroke-width="0.25" d="M286.695,145.553c0,0-21.637,0-21.637,21.638v43.462
			c0,0,0,21.636,21.637,21.636h43.463c0,0,21.638,0,21.638-21.636V167.19c0,0,0-21.638-21.638-21.638H286.695z"/>
	</g>
</g>
</svg>
