<?xml version="1.0" encoding="utf-8"?>
<!-- Generator: Adobe Illustrator 16.0.0, SVG Export Plug-In . SVG Version: 6.00 Build 0)  -->
<!DOCTYPE svg PUBLIC "-//W3C//DTD SVG 1.1//EN" "http://www.w3.org/Graphics/SVG/1.1/DTD/svg11.dtd">
<svg version="1.1" id="Ebene_1" xmlns="http://www.w3.org/2000/svg" xmlns:xlink="http://www.w3.org/1999/xlink" x="0px" y="0px"
	 width="200px" height="35px" viewBox="0 0 200 35" enable-background="new 0 0 200 35" xml:space="preserve">
<g>
	<path fill="#FFFFFF" d="M17.632,28.725c-0.605,0.026-1.157,0.045-1.655,0.058c-0.499,0.015-0.973,0.021-1.418,0.021
		c-1.498,1.551-2.87,2.613-4.117,3.191c-1.249,0.577-2.438,0.839-3.567,0.786c-0.787-0.025-1.53-0.163-2.225-0.412
		c-0.697-0.249-1.288-0.591-1.774-1.026c-0.486-0.432-0.854-0.937-1.102-1.515c-0.25-0.577-0.335-1.208-0.256-1.892
		c0.132-1.155,0.453-2.037,0.966-2.64c0.511-0.605,1.089-1.024,1.732-1.261c0.645-0.238,1.281-0.329,1.912-0.277
		c0.63,0.054,1.129,0.146,1.497,0.277c0.34,0.157,0.584,0.367,0.728,0.631c0.146,0.263,0.198,0.511,0.159,0.748
		c-0.04,0.235-0.159,0.42-0.355,0.552c-0.196,0.13-0.453,0.13-0.768,0c-0.526-0.211-0.998-0.244-1.419-0.1
		c-0.42,0.146-0.762,0.382-1.023,0.709c-0.263,0.329-0.434,0.717-0.513,1.162c-0.08,0.447-0.046,0.875,0.098,1.282
		s0.422,0.747,0.828,1.023c0.407,0.274,0.977,0.415,1.714,0.415c1.129,0,2.337-0.526,3.625-1.576
		c-0.501-0.027-0.808-0.153-0.927-0.375c-0.119-0.222-0.104-0.472,0.04-0.748c0.144-0.277,0.38-0.531,0.709-0.769
		c0.328-0.237,0.689-0.368,1.083-0.394c0.157,0,0.367,0,0.63,0c0.262,0,0.563-0.013,0.905-0.039c1.181-1.313,2.377-2.85,3.585-4.611
		c1.209-1.759,2.404-3.57,3.586-5.437c1.181-1.863,2.344-3.695,3.485-5.495c1.144-1.799,2.24-3.408,3.29-4.828
		c0.263-0.34,0.587-0.551,0.966-0.63c0.382-0.077,0.722-0.044,1.025,0.1c0.301,0.144,0.505,0.38,0.609,0.708
		c0.106,0.33,0.027,0.703-0.236,1.123c-0.893,1.394-1.781,2.93-2.659,4.61c-0.881,1.682-1.695,3.375-2.444,5.082
		c-0.747,1.709-1.411,3.356-1.988,4.946c-0.579,1.588-1.004,2.993-1.28,4.216c-0.275,1.222-0.389,2.206-0.336,2.953
		c0.052,0.749,0.328,1.123,0.829,1.123c0.184,0,0.413-0.046,0.688-0.138c0.275-0.092,0.563-0.218,0.866-0.374
		c0.303-0.158,0.597-0.342,0.887-0.551c0.288-0.21,0.55-0.434,0.789-0.67c0.472-0.474,0.839-0.848,1.102-1.122
		c0.263-0.276,0.566-0.638,0.906-1.084c0.158-0.238,0.376-0.361,0.651-0.376c0.275-0.012,0.532,0.04,0.768,0.159
		c0.236,0.117,0.407,0.281,0.511,0.493c0.104,0.21,0.067,0.432-0.116,0.67c-0.263,0.314-0.62,0.74-1.065,1.279
		c-0.447,0.538-1.012,1.15-1.694,1.832c-0.447,0.419-0.854,0.774-1.221,1.063c-0.367,0.29-0.734,0.525-1.102,0.711
		c-0.369,0.185-0.75,0.313-1.143,0.393c-0.395,0.08-0.841,0.119-1.34,0.119c-1.102,0-1.891-0.382-2.363-1.144
		c-0.473-0.76-0.684-1.772-0.63-3.033C17.907,28.699,17.763,28.725,17.632,28.725z M20.074,21.437
		c-0.63,0.998-1.24,1.916-1.831,2.757c-0.593,0.841-1.163,1.615-1.716,2.325c0.368-0.028,0.71-0.04,1.025-0.04
		c0.315,0,0.579,0,0.79,0C18.708,24.851,19.287,23.168,20.074,21.437z"/>
	<path fill="#FFFFFF" d="M29.254,21.16c0.104-0.237,0.328-0.388,0.668-0.454c0.342-0.065,0.676-0.059,1.006,0.021
		c0.328,0.079,0.597,0.224,0.808,0.434c0.209,0.209,0.249,0.473,0.117,0.787l-0.236,0.475l0.159-0.119
		c0.735-0.631,1.365-1.051,1.891-1.261c0.524-0.211,0.979-0.29,1.359-0.236c0.38,0.052,0.697,0.211,0.945,0.472
		c0.25,0.264,0.454,0.566,0.612,0.906c0.236,0.525,0.242,1.11,0.019,1.753c-0.224,0.646-0.557,1.374-1.004,2.187
		c-0.291,0.579-0.591,1.124-0.906,1.636c-0.317,0.513-0.63,1.045-0.946,1.597c-0.158,0.289-0.231,0.479-0.217,0.57
		c0.013,0.093,0.078,0.126,0.196,0.098c0.119-0.024,0.257-0.084,0.413-0.177c0.159-0.091,0.303-0.188,0.435-0.296
		c0.578-0.444,1.147-0.958,1.713-1.536c0.566-0.577,1.019-1.089,1.359-1.536c0.159-0.236,0.375-0.36,0.651-0.374
		c0.275-0.015,0.524,0.04,0.748,0.157c0.223,0.119,0.388,0.282,0.494,0.492c0.104,0.211,0.078,0.435-0.079,0.67
		c-0.132,0.156-0.309,0.389-0.532,0.688c-0.223,0.303-0.479,0.624-0.768,0.967c-0.29,0.341-0.611,0.697-0.966,1.063
		c-0.355,0.369-0.716,0.71-1.083,1.024c-0.709,0.631-1.346,1.063-1.912,1.301c-0.563,0.237-1.062,0.348-1.496,0.336
		c-0.434-0.015-0.795-0.138-1.083-0.375c-0.291-0.237-0.512-0.525-0.67-0.866c-0.263-0.525-0.294-1.109-0.098-1.755
		c0.196-0.642,0.518-1.385,0.966-2.227c0.104-0.208,0.234-0.459,0.393-0.747c0.159-0.289,0.321-0.584,0.492-0.887
		c0.171-0.3,0.328-0.591,0.474-0.866c0.144-0.276,0.281-0.505,0.413-0.691c0.156-0.288,0.223-0.477,0.196-0.569
		c-0.025-0.092-0.113-0.125-0.255-0.098c-0.146,0.025-0.311,0.083-0.493,0.176c-0.186,0.094-0.354,0.191-0.513,0.296
		c-0.419,0.289-0.854,0.61-1.3,0.964c-0.447,0.355-0.854,0.716-1.221,1.085c-0.263,0.631-0.532,1.261-0.808,1.892
		c-0.276,0.631-0.533,1.222-0.768,1.771c-0.236,0.554-0.441,1.025-0.61,1.419c-0.171,0.396-0.296,0.671-0.375,0.826
		c-0.184,0.37-0.472,0.605-0.866,0.71c-0.395,0.104-0.769,0.098-1.123-0.019c-0.355-0.119-0.625-0.342-0.808-0.67
		c-0.183-0.328-0.159-0.743,0.079-1.241c0.236-0.524,0.558-1.215,0.964-2.068c0.409-0.854,0.829-1.748,1.261-2.68
		c0.435-0.932,0.854-1.845,1.261-2.738C28.616,22.553,28.964,21.791,29.254,21.16z"/>
	<path fill="#FFFFFF" d="M44.225,26.479c0.157-0.236,0.374-0.36,0.649-0.374c0.275-0.012,0.532,0.04,0.768,0.157
		c0.238,0.119,0.407,0.282,0.513,0.492c0.104,0.211,0.065,0.435-0.119,0.67c-0.263,0.343-0.611,0.776-1.043,1.301
		c-0.435,0.526-1.006,1.132-1.716,1.811c-0.447,0.422-0.854,0.777-1.221,1.065c-0.368,0.29-0.735,0.525-1.103,0.709
		c-0.369,0.184-0.749,0.315-1.141,0.395c-0.395,0.077-0.829,0.116-1.302,0.116c-1.34,0-2.121-0.544-2.344-1.633
		c-0.223-1.09,0.205-2.542,1.282-4.354c0.236-0.394,0.484-0.833,0.75-1.32c0.261-0.485,0.53-0.965,0.806-1.438
		c0.277-0.472,0.539-0.918,0.789-1.338c0.25-0.419,0.465-0.774,0.651-1.064c0.236-0.367,0.536-0.604,0.905-0.71
		c0.368-0.104,0.701-0.104,1.004,0c0.303,0.106,0.533,0.282,0.691,0.532c0.156,0.251,0.129,0.546-0.079,0.888
		c-0.291,0.498-0.618,1.083-0.985,1.754c-0.37,0.668-0.697,1.266-0.986,1.792c-0.289,0.526-0.571,1.023-0.847,1.496
		c-0.275,0.474-0.498,0.905-0.669,1.301c-0.171,0.394-0.29,0.729-0.355,1.006c-0.064,0.274-0.034,0.465,0.098,0.569
		c0.131,0.134,0.322,0.166,0.572,0.101c0.25-0.067,0.52-0.192,0.808-0.377c0.29-0.184,0.578-0.394,0.868-0.629
		c0.288-0.236,0.551-0.472,0.787-0.71c0.447-0.472,0.802-0.847,1.064-1.123C43.58,27.286,43.883,26.926,44.225,26.479z
		 M45.84,17.692c-0.132,0.21-0.303,0.422-0.514,0.63c-0.208,0.211-0.379,0.369-0.511,0.474c-0.342,0.211-0.697,0.354-1.065,0.433
		c-0.367,0.079-0.676,0.094-0.924,0.039c-0.25-0.052-0.422-0.184-0.514-0.393c-0.092-0.211-0.019-0.498,0.217-0.867
		c0.08-0.157,0.196-0.362,0.355-0.61c0.159-0.25,0.302-0.48,0.434-0.691c0.209-0.315,0.499-0.505,0.867-0.569
		c0.367-0.067,0.709-0.046,1.024,0.059c0.315,0.104,0.551,0.29,0.709,0.551C46.076,17.009,46.049,17.325,45.84,17.692z"/>
	<path fill="#FFFFFF" d="M54.547,27.582c0.104-0.21,0.236-0.458,0.393-0.749c0.159-0.289,0.321-0.584,0.493-0.887
		c0.171-0.3,0.328-0.591,0.474-0.866c0.144-0.276,0.282-0.505,0.413-0.688c0.159-0.291,0.217-0.479,0.177-0.572
		c-0.04-0.092-0.131-0.125-0.275-0.098c-0.146,0.025-0.31,0.086-0.493,0.176c-0.184,0.094-0.342,0.191-0.474,0.296
		c-0.63,0.422-1.246,0.894-1.852,1.42c-0.052,0.079-0.098,0.162-0.137,0.254s-0.085,0.177-0.138,0.256
		c-0.158,0.291-0.382,0.735-0.67,1.341c-0.29,0.605-0.591,1.233-0.906,1.892c-0.314,0.656-0.617,1.287-0.905,1.89
		c-0.29,0.605-0.514,1.038-0.67,1.301c-0.158,0.288-0.407,0.472-0.749,0.551c-0.342,0.08-0.664,0.073-0.964-0.02
		c-0.302-0.091-0.547-0.257-0.729-0.491c-0.186-0.237-0.198-0.515-0.042-0.829c0.104-0.209,0.336-0.674,0.69-1.398
		c0.355-0.722,0.729-1.496,1.123-2.322c0.393-0.829,0.762-1.597,1.103-2.307c0.342-0.71,0.578-1.154,0.709-1.341
		c0.159-0.288,0.217-0.477,0.177-0.569c-0.04-0.092-0.125-0.125-0.256-0.098c-0.131,0.025-0.295,0.083-0.491,0.176
		c-0.198,0.094-0.363,0.191-0.492,0.296c-0.449,0.289-0.92,0.636-1.419,1.043c-0.499,0.41-0.933,0.808-1.301,1.203l-2.481,5.711
		c-0.184,0.37-0.474,0.604-0.868,0.71c-0.393,0.104-0.768,0.098-1.123-0.019c-0.355-0.119-0.622-0.342-0.808-0.67
		c-0.182-0.328-0.157-0.743,0.079-1.241c0.238-0.526,0.559-1.215,0.966-2.068c0.407-0.854,0.827-1.748,1.26-2.68
		c0.433-0.932,0.854-1.845,1.261-2.738c0.407-0.892,0.755-1.655,1.043-2.284c0.104-0.237,0.327-0.388,0.669-0.454
		c0.34-0.065,0.677-0.059,1.004,0.021c0.33,0.077,0.6,0.224,0.808,0.434c0.211,0.209,0.25,0.473,0.119,0.787l-0.275,0.63
		l0.314-0.274c0.735-0.631,1.365-1.051,1.892-1.261c0.525-0.211,0.979-0.29,1.358-0.236c0.38,0.052,0.695,0.211,0.946,0.472
		c0.25,0.264,0.453,0.566,0.611,0.906l0.117,0.314c0.054-0.024,0.131-0.092,0.238-0.195c0.735-0.631,1.365-1.051,1.891-1.261
		c0.526-0.211,0.979-0.29,1.359-0.238c0.382,0.054,0.697,0.211,0.945,0.474c0.25,0.264,0.455,0.566,0.612,0.906
		c0.262,0.525,0.275,1.11,0.04,1.753c-0.236,0.646-0.578,1.374-1.025,2.187c-0.29,0.579-0.591,1.124-0.905,1.636
		c-0.315,0.513-0.631,1.045-0.946,1.597c-0.159,0.289-0.229,0.479-0.217,0.57c0.013,0.093,0.079,0.126,0.196,0.098
		c0.119-0.026,0.257-0.084,0.414-0.177c0.159-0.091,0.303-0.188,0.434-0.296c0.603-0.447,1.183-0.958,1.734-1.536
		c0.55-0.577,0.997-1.089,1.337-1.536c0.159-0.236,0.375-0.36,0.651-0.374c0.276-0.015,0.532,0.039,0.768,0.157
		c0.236,0.119,0.407,0.282,0.514,0.492c0.104,0.211,0.065,0.435-0.119,0.67c-0.131,0.156-0.309,0.389-0.532,0.688
		c-0.224,0.303-0.48,0.624-0.768,0.967c-0.29,0.341-0.605,0.695-0.946,1.063c-0.342,0.369-0.697,0.71-1.064,1.024
		c-0.735,0.631-1.386,1.063-1.95,1.301c-0.566,0.235-1.064,0.348-1.496,0.336c-0.435-0.015-0.795-0.141-1.085-0.376
		c-0.288-0.236-0.511-0.524-0.67-0.865c-0.236-0.526-0.254-1.11-0.058-1.755C53.778,29.165,54.099,28.422,54.547,27.582z"/>
	<path fill="#FFFFFF" d="M72.826,26.479c0.184-0.236,0.415-0.36,0.69-0.374c0.276-0.012,0.532,0.04,0.768,0.157
		c0.236,0.119,0.407,0.282,0.512,0.492c0.106,0.211,0.066,0.435-0.117,0.67c-0.133,0.158-0.309,0.389-0.532,0.688
		c-0.223,0.303-0.486,0.627-0.789,0.967c-0.303,0.342-0.624,0.697-0.964,1.063c-0.342,0.368-0.697,0.709-1.064,1.023
		c-0.709,0.633-1.34,1.063-1.891,1.301c-0.551,0.237-1.038,0.342-1.459,0.314c-0.419-0.025-0.774-0.156-1.062-0.394
		c-0.29-0.237-0.539-0.512-0.75-0.826c-0.419,0.262-0.872,0.537-1.358,0.826c-0.486,0.289-1.215,0.433-2.187,0.433
		c-0.683,0-1.273-0.155-1.772-0.472c-0.501-0.314-0.869-0.761-1.104-1.339c-0.236-0.576-0.315-1.268-0.236-2.068
		s0.38-1.674,0.906-2.62c0.499-0.946,1.098-1.767,1.793-2.462c0.694-0.697,1.397-1.267,2.107-1.714
		c0.71-0.446,1.398-0.774,2.069-0.985c0.669-0.21,1.254-0.314,1.752-0.314c0.34,0,0.637,0.046,0.887,0.138
		c0.249,0.092,0.479,0.204,0.688,0.334c0.211,0.131,0.407,0.29,0.591,0.474c0.159-0.315,0.42-0.545,0.789-0.69
		c0.368-0.145,0.716-0.196,1.043-0.157c0.328,0.04,0.579,0.165,0.749,0.374c0.171,0.211,0.15,0.501-0.06,0.868
		c-0.209,0.419-0.472,0.939-0.787,1.558c-0.315,0.615-0.643,1.245-0.985,1.889c-0.342,0.645-0.664,1.247-0.966,1.813
		c-0.301,0.563-0.544,0.978-0.729,1.239c-0.156,0.29-0.215,0.492-0.178,0.611c0.042,0.118,0.153,0.172,0.336,0.157
		c0.184-0.014,0.394-0.084,0.63-0.216c0.236-0.131,0.472-0.314,0.71-0.553c0.447-0.472,0.808-0.846,1.083-1.123
		C72.217,27.286,72.513,26.926,72.826,26.479z M67.037,27.582c0.393-0.498,0.714-1.006,0.964-1.517
		c0.25-0.512,0.434-0.985,0.551-1.42c0.119-0.431,0.165-0.813,0.138-1.141c-0.025-0.328-0.144-0.572-0.355-0.729
		c-0.209-0.158-0.478-0.204-0.808-0.137c-0.328,0.064-0.683,0.215-1.062,0.452c-0.382,0.236-0.776,0.552-1.184,0.945
		c-0.407,0.393-0.808,0.842-1.2,1.339c-0.395,0.527-0.722,1.039-0.985,1.537c-0.263,0.5-0.453,0.965-0.572,1.398
		c-0.116,0.436-0.156,0.814-0.116,1.143c0.037,0.329,0.163,0.57,0.374,0.729c0.184,0.157,0.44,0.211,0.768,0.157
		c0.328-0.053,0.689-0.197,1.083-0.435c0.395-0.235,0.795-0.55,1.202-0.945C66.242,28.567,66.642,28.105,67.037,27.582z"/>
	<path fill="#FFFFFF" d="M79.446,20.176l-3.271,5.752c-0.29,0.526-0.571,1.023-0.847,1.496c-0.275,0.474-0.499,0.905-0.669,1.301
		c-0.171,0.394-0.29,0.729-0.355,1.006c-0.064,0.274-0.034,0.465,0.098,0.569c0.132,0.134,0.321,0.166,0.572,0.101
		c0.25-0.067,0.514-0.192,0.789-0.377c0.276-0.184,0.557-0.394,0.848-0.629c0.288-0.236,0.551-0.472,0.787-0.71
		c0.474-0.472,0.84-0.847,1.104-1.123c0.261-0.275,0.564-0.636,0.906-1.083c0.156-0.236,0.373-0.36,0.649-0.374
		c0.275-0.012,0.532,0.04,0.768,0.157c0.238,0.119,0.407,0.282,0.513,0.492c0.104,0.211,0.065,0.435-0.119,0.67
		c-0.263,0.343-0.618,0.776-1.063,1.301c-0.449,0.526-1.012,1.132-1.694,1.811c-0.449,0.422-0.854,0.777-1.221,1.065
		c-0.37,0.29-0.737,0.525-1.104,0.709c-0.367,0.184-0.749,0.315-1.141,0.395c-0.395,0.077-0.829,0.116-1.3,0.116
		c-1.34,0-2.121-0.544-2.344-1.633c-0.223-1.09,0.203-2.542,1.28-4.354c0.131-0.235,0.328-0.591,0.591-1.064
		c0.263-0.472,0.572-1.01,0.926-1.615c0.355-0.603,0.729-1.246,1.123-1.93c0.395-0.683,0.774-1.354,1.142-2.01
		c-0.211,0.026-0.435,0.039-0.67,0.039c-0.235,0-0.471,0-0.707,0c-0.553,0-0.908-0.11-1.065-0.334
		c-0.159-0.224-0.171-0.48-0.04-0.769c0.131-0.29,0.368-0.551,0.71-0.789c0.34-0.235,0.722-0.367,1.141-0.392
		c0.211,0,0.486,0,0.829,0c0.34,0,0.722-0.015,1.142-0.04l0.868-1.42c0.236-0.367,0.537-0.603,0.906-0.709
		c0.368-0.104,0.708-0.104,1.022,0c0.315,0.106,0.545,0.284,0.691,0.532c0.144,0.25,0.124,0.544-0.061,0.887l-0.393,0.67
		c0.393,0,0.76,0,1.103,0c0.342,0,0.617-0.013,0.828-0.04c0.393,0,0.63,0.113,0.71,0.334c0.077,0.224,0.052,0.474-0.08,0.749
		c-0.131,0.276-0.342,0.538-0.63,0.789c-0.29,0.248-0.605,0.374-0.945,0.374L79.446,20.176z"/>
	<path fill="#FFFFFF" d="M85.985,26.479c0.158-0.236,0.375-0.36,0.651-0.374c0.275-0.012,0.532,0.04,0.768,0.157
		c0.236,0.119,0.407,0.282,0.511,0.492c0.104,0.211,0.064,0.435-0.119,0.67c-0.261,0.343-0.61,0.776-1.044,1.301
		c-0.434,0.526-1.004,1.132-1.713,1.811c-0.447,0.422-0.854,0.777-1.221,1.065c-0.37,0.29-0.737,0.525-1.104,0.709
		s-0.747,0.315-1.141,0.395c-0.395,0.077-0.829,0.116-1.301,0.116c-1.34,0-2.12-0.544-2.344-1.633
		c-0.223-1.09,0.202-2.542,1.28-4.354c0.236-0.394,0.486-0.833,0.749-1.32c0.263-0.485,0.533-0.965,0.809-1.438
		c0.275-0.472,0.538-0.918,0.788-1.338c0.249-0.419,0.465-0.774,0.649-1.064c0.236-0.367,0.539-0.604,0.906-0.71
		c0.368-0.104,0.703-0.104,1.004,0c0.303,0.106,0.532,0.282,0.691,0.532c0.158,0.251,0.131,0.546-0.08,0.888
		c-0.29,0.498-0.618,1.083-0.985,1.754c-0.367,0.668-0.695,1.266-0.985,1.792c-0.288,0.526-0.569,1.023-0.847,1.496
		c-0.275,0.474-0.499,0.905-0.67,1.301c-0.171,0.394-0.289,0.729-0.353,1.006c-0.067,0.274-0.034,0.465,0.098,0.569
		c0.13,0.134,0.321,0.166,0.572,0.101c0.249-0.067,0.518-0.192,0.808-0.377c0.288-0.184,0.577-0.394,0.867-0.629
		c0.288-0.236,0.551-0.472,0.789-0.71c0.444-0.472,0.801-0.847,1.062-1.123C85.342,27.286,85.645,26.926,85.985,26.479z
		 M87.601,17.692c-0.132,0.21-0.303,0.422-0.512,0.63c-0.211,0.211-0.382,0.369-0.514,0.474c-0.34,0.211-0.694,0.354-1.062,0.433
		c-0.369,0.079-0.679,0.094-0.926,0.039c-0.249-0.052-0.42-0.184-0.512-0.393c-0.092-0.211-0.021-0.498,0.217-0.867
		c0.077-0.157,0.196-0.362,0.355-0.61c0.157-0.25,0.301-0.48,0.432-0.691c0.211-0.315,0.499-0.505,0.866-0.569
		c0.367-0.067,0.709-0.046,1.024,0.059c0.315,0.104,0.553,0.29,0.71,0.551C87.836,17.009,87.811,17.325,87.601,17.692z"/>
	<path fill="#FFFFFF" d="M98.119,26.479c0.159-0.236,0.375-0.36,0.651-0.374c0.276-0.012,0.523,0.033,0.747,0.138
		c0.223,0.104,0.382,0.27,0.474,0.493c0.092,0.224,0.059,0.453-0.098,0.688c-0.211,0.314-0.52,0.67-0.927,1.064
		s-0.887,0.742-1.438,1.044c-0.551,0.303-1.135,0.512-1.753,0.631c-0.618,0.118-1.214,0.059-1.792-0.179
		c-0.762,0.842-1.609,1.512-2.542,2.011c-0.931,0.498-1.857,0.749-2.776,0.749c-0.685,0-1.275-0.158-1.774-0.475
		c-0.499-0.314-0.875-0.733-1.123-1.26s-0.373-1.149-0.373-1.873c0-0.722,0.144-1.486,0.434-2.304
		c0.313-0.814,0.734-1.582,1.26-2.304c0.524-0.722,1.114-1.353,1.772-1.891c0.655-0.539,1.346-0.967,2.068-1.282
		c0.722-0.314,1.438-0.474,2.147-0.474c0.708,0,1.313,0.159,1.812,0.474c0.499,0.315,0.873,0.743,1.123,1.282
		c0.248,0.538,0.373,1.169,0.373,1.891s-0.144,1.489-0.432,2.304c-0.079,0.212-0.158,0.407-0.238,0.591
		c-0.077,0.184-0.171,0.37-0.275,0.551c0.395,0.027,0.847-0.104,1.359-0.393C97.311,27.293,97.752,26.926,98.119,26.479z
		 M93.471,26.675c0.419-0.919,0.524-1.699,0.315-2.344c-0.211-0.644-0.658-0.965-1.34-0.965c-0.342,0-0.703,0.084-1.083,0.255
		c-0.381,0.171-0.749,0.407-1.104,0.71s-0.689,0.651-1.004,1.044c-0.315,0.394-0.566,0.827-0.75,1.3
		c-0.395,0.921-0.486,1.701-0.275,2.346c0.21,0.643,0.657,0.964,1.34,0.964c0.341,0,0.702-0.085,1.083-0.257
		c0.379-0.169,0.749-0.407,1.104-0.707c0.355-0.303,0.674-0.657,0.964-1.063C93.01,27.55,93.26,27.124,93.471,26.675z"/>
	<path fill="#FFFFFF" d="M100.563,21.16c0.104-0.237,0.328-0.388,0.668-0.454c0.343-0.065,0.677-0.059,1.006,0.021
		c0.328,0.079,0.597,0.224,0.808,0.434c0.209,0.209,0.249,0.473,0.117,0.787l-0.235,0.475l0.158-0.119
		c0.735-0.631,1.364-1.051,1.891-1.261c0.524-0.211,0.979-0.29,1.359-0.236c0.38,0.052,0.695,0.211,0.945,0.472
		c0.248,0.264,0.453,0.566,0.609,0.906c0.238,0.525,0.244,1.11,0.021,1.753c-0.224,0.646-0.56,1.374-1.004,2.187
		c-0.29,0.579-0.592,1.124-0.907,1.636c-0.315,0.513-0.631,1.045-0.944,1.597c-0.158,0.289-0.23,0.479-0.217,0.57
		c0.013,0.093,0.078,0.126,0.196,0.098c0.117-0.024,0.255-0.084,0.413-0.177c0.159-0.091,0.303-0.188,0.435-0.296
		c0.578-0.444,1.148-0.958,1.713-1.536c0.565-0.577,1.017-1.089,1.359-1.536c0.158-0.236,0.376-0.36,0.651-0.374
		c0.274-0.015,0.523,0.04,0.747,0.157c0.223,0.119,0.388,0.282,0.492,0.492c0.106,0.211,0.079,0.435-0.077,0.67
		c-0.131,0.156-0.309,0.389-0.532,0.688c-0.224,0.303-0.48,0.624-0.769,0.967c-0.29,0.341-0.611,0.697-0.966,1.063
		c-0.354,0.369-0.716,0.71-1.083,1.024c-0.71,0.631-1.347,1.063-1.909,1.301c-0.566,0.237-1.065,0.348-1.499,0.336
		c-0.433-0.015-0.795-0.138-1.083-0.375c-0.291-0.237-0.512-0.525-0.67-0.866c-0.263-0.525-0.295-1.109-0.099-1.755
		c0.196-0.642,0.518-1.385,0.967-2.227c0.104-0.208,0.235-0.459,0.393-0.747c0.158-0.289,0.32-0.584,0.492-0.887
		c0.171-0.3,0.327-0.591,0.474-0.866c0.145-0.276,0.281-0.505,0.413-0.691c0.158-0.288,0.224-0.477,0.196-0.569
		c-0.025-0.092-0.11-0.125-0.255-0.098c-0.146,0.025-0.309,0.083-0.492,0.176c-0.184,0.094-0.354,0.191-0.514,0.296
		c-0.419,0.289-0.854,0.61-1.3,0.964c-0.446,0.355-0.854,0.716-1.221,1.085c-0.264,0.631-0.533,1.261-0.808,1.892
		s-0.532,1.222-0.768,1.771c-0.236,0.554-0.441,1.025-0.609,1.419c-0.171,0.396-0.296,0.671-0.376,0.826
		c-0.184,0.37-0.471,0.605-0.866,0.71s-0.768,0.098-1.123-0.019c-0.354-0.119-0.624-0.342-0.808-0.67
		c-0.184-0.328-0.158-0.743,0.08-1.241c0.235-0.524,0.557-1.215,0.964-2.068c0.406-0.854,0.828-1.748,1.26-2.68
		c0.434-0.932,0.854-1.845,1.26-2.738C99.924,22.553,100.272,21.791,100.563,21.16z"/>
	<path fill="#FFFFFF" d="M116.873,20.766c-0.369,0.526-0.749,0.992-1.144,1.398c-0.393,0.407-0.616,0.927-0.67,1.558
		c-0.053,0.314-0.006,0.677,0.138,1.082c0.146,0.407,0.29,0.854,0.435,1.341c0.144,0.486,0.235,1.01,0.274,1.575
		c0.04,0.564-0.058,1.176-0.294,1.834c0.288-0.159,0.539-0.331,0.748-0.515c0.604-0.446,1.063-0.872,1.379-1.279
		s0.644-0.834,0.985-1.281c0.159-0.236,0.374-0.36,0.651-0.374c0.275-0.012,0.523,0.04,0.747,0.157
		c0.223,0.119,0.388,0.283,0.492,0.492c0.104,0.211,0.08,0.435-0.079,0.67c-0.261,0.343-0.609,0.782-1.043,1.322
		c-0.433,0.537-1.019,1.134-1.754,1.792c-0.894,0.786-1.839,1.346-2.837,1.674c-0.997,0.327-1.903,0.505-2.717,0.532
		c-0.448,0.079-0.894,0.104-1.34,0.079c-0.448-0.027-0.862-0.119-1.241-0.277c-0.38-0.157-0.717-0.361-1.004-0.609
		c-0.29-0.251-0.514-0.545-0.67-0.887c-0.395-0.894-0.475-1.687-0.238-2.384c0.238-0.695,0.657-1.426,1.263-2.188
		c0.129-0.157,0.34-0.42,0.63-0.786c0.288-0.367,0.624-0.789,1.004-1.261c0.38-0.475,0.78-0.967,1.202-1.479
		c0.42-0.513,0.814-0.997,1.182-1.459c0.367-0.458,0.688-0.859,0.966-1.201c0.275-0.341,0.479-0.576,0.61-0.71
		c0.211-0.209,0.485-0.319,0.828-0.334c0.34-0.013,0.655,0.046,0.945,0.178c0.288,0.131,0.499,0.321,0.63,0.571
		C117.082,20.246,117.057,20.503,116.873,20.766z M112.027,30.694c0.315-0.211,0.545-0.518,0.688-0.927
		c0.145-0.407,0.217-0.845,0.217-1.319c0-0.474-0.052-0.951-0.156-1.438c-0.106-0.484-0.237-0.912-0.395-1.28
		c-0.736,0.868-1.288,1.518-1.655,1.951c-0.367,0.432-0.617,0.768-0.749,1.004c-0.156,0.238-0.196,0.513-0.117,0.829
		c0.08,0.314,0.229,0.59,0.453,0.826c0.222,0.235,0.484,0.4,0.787,0.491C111.403,30.924,111.712,30.878,112.027,30.694z"/>
	<path fill="#FFFFFF" d="M129.208,3.694v29.047h-1.73V3.694h-7.793V1.962h17.314v1.732H129.208z"/>
	<path fill="#FFFFFF" d="M156.237,1.962v1.732h-13.658v12.793h13.658v1.73h-13.658v12.794h13.658v1.732h-15.39V1.962H156.237z"/>
	<path fill="#FFFFFF" d="M169.183,15.699c-2.192-0.73-3.923-1.732-5.194-3.001c-1.269-1.269-1.903-2.81-1.903-4.616
		c0-1.77,0.635-3.294,1.903-4.569c1.271-1.278,2.809-1.914,4.617-1.914c1.796,0,3.335,0.634,4.618,1.903
		c0.706,0.681,1.192,1.442,1.461,2.29l-1.559,0.616c-0.23-0.628-0.608-1.206-1.134-1.732c-0.938-0.923-2.066-1.384-3.387-1.384
		c-1.322,0-2.448,0.463-3.385,1.395c-0.938,0.929-1.405,2.062-1.405,3.396c0,1.321,0.469,2.448,1.405,3.385
		c0.872,0.86,2.077,1.648,3.616,2.367c2.462,0.795,4.533,2.033,6.214,3.713c1.781,1.771,2.673,3.911,2.673,6.424
		c0,2.527-0.892,4.681-2.673,6.464c-1.783,1.784-3.932,2.676-6.445,2.676c-2.513,0-4.663-0.897-6.445-2.694
		c-1.424-1.424-2.274-3.078-2.559-4.963l1.636-0.598c0.18,1.668,0.892,3.125,2.135,4.368c1.449,1.449,3.193,2.175,5.233,2.175
		c2.052,0,3.803-0.726,5.253-2.175c1.448-1.45,2.173-3.198,2.173-5.253c0-2.039-0.725-3.781-2.173-5.232
		C172.589,17.469,171.029,16.454,169.183,15.699z"/>
	<path fill="#FFFFFF" d="M189.171,3.694v29.047h-1.732V3.694h-7.791V1.962h17.314v1.732H189.171z"/>
</g>
</svg>
